<?xml version="1.0" encoding="utf-8"?>
<!-- Generator: Adobe Illustrator 23.0.2, SVG Export Plug-In . SVG Version: 6.00 Build 0)  -->
<svg version="1.1" id="Layer_1" xmlns="http://www.w3.org/2000/svg" xmlns:xlink="http://www.w3.org/1999/xlink" x="0px" y="0px"
	 viewBox="0 0 68.8 75.7" style="enable-background:new 0 0 68.8 75.7;" xml:space="preserve">
<style type="text/css">
	.st0{fill:#26333B;}
</style>
<title>Artboard 1</title>
<path class="st0" d="M50.9,29.6c0,0.6-0.1,1.2-0.2,1.8c-1,6.6-2.2,13.3-3.4,19.8l-0.3,1.7c-0.2,1-0.6,1.9-1.3,2.6l-5.9,6.2
	c-1.2,1.3-2.8,2-4.6,2H34c-1.7,0-3.3-0.7-4.5-1.8l-6.4-6.5c-0.7-0.7-1.2-1.7-1.4-2.7L21.4,51c-0.7-4.1-1.5-8.1-2.2-12.2
	c-0.2-0.8-0.3-1.7-0.5-2.5c-0.7-3.5-1.3-6.8-0.9-9.7c1.4-9.1,9.9-15.4,19-14c0.6,0.1,1.2,0.2,1.8,0.4C46.1,14.9,51.2,21.8,50.9,29.6
	z M62.7,32.9c0.1-0.9,0.2-1.9,0.3-2.8C63.7,14.3,51.5,0.8,35.7,0C20.8-0.7,7.9,10.1,5.9,24.9c-0.4,2.7-0.4,5.3,0,8
	c-3.7,0.4-6.3,3.8-5.9,7.5c0.4,3.4,3.3,6,6.8,5.9c0.5,0,1,0,1.5-0.1l1.3,7l0.3,1.6c0.6,3.5,2.2,6.7,4.7,9.1l6.4,6.4
	c3.4,3.4,8.1,5.4,13,5.4h1.3c5,0,9.8-2.1,13.3-5.7l5.9-6.2c2.3-2.4,3.9-5.5,4.4-8.8l0.3-1.6c0.4-2.3,0.8-4.7,1.3-7.1
	c0.5,0.1,1,0.2,1.5,0.2c3.7,0,6.8-3,6.8-6.7C68.8,36.1,66.2,33.2,62.7,32.9"/>
</svg>
