<?xml version="1.0" encoding="utf-8"?>
<!-- Generator: Adobe Illustrator 23.0.2, SVG Export Plug-In . SVG Version: 6.00 Build 0)  -->
<svg version="1.1" id="Layer_1" xmlns="http://www.w3.org/2000/svg" xmlns:xlink="http://www.w3.org/1999/xlink" x="0px" y="0px"
	 viewBox="0 0 68.4 38.1" style="enable-background:new 0 0 68.4 38.1;" xml:space="preserve">
<style type="text/css">
	.st0{fill:#26333B;}
</style>
<title>Artboard 1</title>
<path class="st0" d="M0,38.1h18.9c-0.1-0.6-0.2-1.2-0.4-1.8c-0.7-3.5-1.3-6.8-0.9-9.7c1.4-9.1,9.9-15.4,19-14
	c0.6,0.1,1.2,0.2,1.8,0.4c7.5,1.9,12.6,8.8,12.3,16.6c0,0.6-0.1,1.2-0.2,1.8c-0.3,2.2-0.7,4.4-1.1,6.7h19c-0.7-2.8-3-4.9-5.9-5.2
	c0.1-0.9,0.2-1.9,0.3-2.8C63.5,14.3,51.3,0.8,35.5,0C20.6-0.7,7.7,10.1,5.7,24.9c-0.4,2.7-0.4,5.3,0,8C2.9,33.2,0.6,35.4,0,38.1z"/>
</svg>
