<?xml version="1.0" encoding="utf-8"?>
<!-- Generator: Adobe Illustrator 23.0.1, SVG Export Plug-In . SVG Version: 6.00 Build 0)  -->
<svg version="1.1" id="Layer_1" xmlns="http://www.w3.org/2000/svg" xmlns:xlink="http://www.w3.org/1999/xlink" x="0px" y="0px"
	 viewBox="0 0 738.6 112.2" style="enable-background:new 0 0 738.6 112.2;" xml:space="preserve">
<style type="text/css">
	.st0{clip-path:url(#SVGID_2_);}
	.st1{fill:#FFFFFF;}
	.st2{clip-path:url(#SVGID_4_);}
	.st3{fill:#ED4724;}
	.st4{fill:#4EC1CD;}
	.st5{fill:#FAC18E;}
	.st6{fill:#208F48;}
	.st7{fill:#C3DAAD;}
	.st8{fill:#F2DC45;}
	.st9{fill:#074667;}
</style>
<title>skillpod-logo-2</title>
<g>
	<defs>
		<rect id="SVGID_1_" width="593.2" height="104.7"/>
	</defs>
	<clipPath id="SVGID_2_">
		<use xlink:href="#SVGID_1_"  style="overflow:visible;"/>
	</clipPath>
	<g class="st0">
		<path class="st1" d="M0,85.9L11.7,79c2.5,6.5,7.3,10.6,15.9,10.6c8.2,0,11.1-3.5,11.1-7.3c0-5.2-4.7-7.1-14.9-10.1
			C13.2,69.1,2.9,64.7,2.9,51.5S13.8,31,25.6,31c11.4,0,20.1,5.8,24.7,15.5l-11.5,6.6c-2.5-5.2-6.2-8.9-13.3-8.9
			c-5.7,0-9.1,3-9.1,6.9c0,4.3,2.7,6.5,13.2,9.7c11,3.5,22.7,7.1,22.7,21.3c0,13-10.3,20.9-25.1,20.9C13.1,103,3.8,96.2,0,85.9"/>
	</g>
</g>
<polygon class="st1" points="119.7,101.6 95,69.1 95,101.6 81.3,101.6 81.3,32.3 95,32.3 95,62.9 118.7,32.3 134.5,32.3 108.8,66 
	135.4,101.6 "/>
<rect x="162.2" y="32.3" class="st1" width="13.6" height="69.2"/>
<polygon class="st1" points="253.2,88.5 253.2,101.6 213.2,101.6 213.2,32.3 226.8,32.3 226.8,88.5 "/>
<polygon class="st1" points="323.9,88.5 323.9,101.6 283.9,101.6 283.9,32.3 297.5,32.3 297.5,88.5 "/>
<g>
	<defs>
		<rect id="SVGID_3_" width="593.2" height="104.7"/>
	</defs>
	<clipPath id="SVGID_4_">
		<use xlink:href="#SVGID_3_"  style="overflow:visible;"/>
	</clipPath>
	<g class="st2">
		<path class="st1" d="M389.3,55.6c0-6-4.2-10.5-10.1-10.5H367v21h12.2C385,66.1,389.3,61.5,389.3,55.6 M402.9,55.6
			c0,13-10.3,23.2-23.6,23.2H367v22.8h-13.6V32.3h25.8C392.6,32.3,402.9,42.6,402.9,55.6"/>
		<path class="st1" d="M580.2,67c0-12.8-8.3-21.6-20.3-21.6H546v43.1h13.8C571.8,88.5,580.1,79.7,580.2,67 M593.2,67
			c0,19.5-14.2,34.6-33.3,34.6h-27.5V32.3h27.5C578.9,32.3,593.2,47.5,593.2,67"/>
		<path class="st1" d="M481.1,58.5c0,0.6-0.1,1.2-0.2,1.8c-1,6.6-2.2,13.3-3.4,19.8l-0.3,1.7c-0.2,1-0.6,1.9-1.3,2.6l-5.9,6.2
			c-1.2,1.3-2.8,2-4.6,2h-1.3c-1.7,0-3.3-0.7-4.5-1.8l-6.4-6.4c-0.7-0.7-1.2-1.7-1.4-2.7l-0.3-1.7c-0.7-4.1-1.5-8.1-2.2-12.2
			c-0.1-0.8-0.3-1.7-0.5-2.5c-0.7-3.5-1.3-6.8-0.9-9.7c1.4-9.1,9.9-15.4,19-14.1c0.6,0.1,1.2,0.2,1.7,0.4
			C476.2,43.9,481.3,50.8,481.1,58.5L481.1,58.5z M492.8,61.8c0.1-0.9,0.2-1.9,0.3-2.8c0.7-15.8-11.6-29.2-27.4-29.8
			c-14.7-0.6-27.5,10.1-29.6,24.7c-0.4,2.7-0.4,5.3,0,8c-3.7,0.5-6.3,3.9-5.8,7.6c0.4,3.3,3.3,5.8,6.7,5.8c0.5,0,1-0.1,1.4-0.2
			l1.3,7l0.3,1.6c0.6,3.5,2.2,6.7,4.7,9.1l6.4,6.4c3.4,3.5,8.1,5.4,13,5.4h1.3c5,0,9.8-2,13.3-5.6l5.9-6.2c2.3-2.4,3.9-5.5,4.4-8.8
			l0.3-1.6c0.4-2.4,0.8-4.8,1.3-7.2c0.5,0.1,1,0.2,1.5,0.2c3.7,0,6.7-3.1,6.7-6.8C498.8,65.1,496.2,62.2,492.8,61.8"/>
	</g>
</g>
<rect x="460.1" class="st3" width="9.8" height="19.8"/>
<rect x="475.8" y="11.6" transform="matrix(0.3461 -0.9382 0.9382 0.3461 299.6275 462.9621)" class="st4" width="12.3" height="9.8"/>
<rect x="500.9" y="35" transform="matrix(0.8927 -0.4507 0.4507 0.8927 36.4163 232.8258)" class="st5" width="12.3" height="9.8"/>
<rect x="489.5" y="18.7" transform="matrix(0.7071 -0.7071 0.7071 0.7071 129.5788 360.067)" class="st6" width="19.8" height="9.8"/>
<rect x="442.5" y="11.1" transform="matrix(0.9382 -0.3461 0.3461 0.9382 21.6323 155.9153)" class="st7" width="9.8" height="12.6"/>
<rect x="417.3" y="34.7" transform="matrix(0.4507 -0.8927 0.8927 0.4507 195.4037 399.3918)" class="st8" width="9.8" height="12.5"/>
<rect x="425" y="14.5" transform="matrix(0.7071 -0.7071 0.7071 0.7071 108.5728 311.1465)" class="st9" width="9.8" height="20"/>
<path class="st1" d="M652.9,72.6c2,2,3.1,4.8,3.1,8.6v19.5h-2.8v-5.5c-1,1.8-2.5,3.3-4.3,4.2c-2.1,1-4.4,1.6-6.8,1.5
	c-3.4,0-6.1-0.8-8.1-2.4c-3.5-3-4-8.2-1-11.8c0.2-0.3,0.5-0.6,0.8-0.8c1.8-1.6,4.8-2.4,8.8-2.4H653v-2.5c0-2.9-0.8-5-2.3-6.6
	s-3.8-2.2-6.8-2.2c-2,0-4,0.4-5.9,1.1c-1.7,0.6-3.4,1.6-4.8,2.8l-1.5-2.2c1.6-1.4,3.5-2.5,5.5-3.2c2.2-0.8,4.5-1.2,6.8-1.2
	C647.9,69.7,650.8,70.7,652.9,72.6z M649,96.8c1.8-1.3,3.2-3,4-5.1v-5.8h-10.5c-3,0-5.2,0.5-6.6,1.7c-1.3,1.1-2.1,2.8-2,4.5
	c-0.1,1.9,0.8,3.6,2.2,4.8c1.9,1.3,4.1,1.9,6.3,1.7C644.8,98.6,647,98,649,96.8z"/>
<path class="st1" d="M691.3,71.7c2.3,1.3,4.2,3.2,5.5,5.5c2.6,5.1,2.6,11.1,0,16.2c-1.3,2.3-3.2,4.3-5.5,5.6c-2.4,1.3-5.1,2-7.8,2
	c-2.6,0-5.1-0.7-7.4-2c-2.2-1.3-4-3.1-5.1-5.3v18.5h-3V69.9h2.8v7.3c1.2-2.3,2.9-4.2,5.2-5.5c2.3-1.3,4.8-2,7.5-2
	C686.3,69.6,689,70.3,691.3,71.7z M689.8,96.7c1.9-1.1,3.4-2.7,4.5-4.7c2.2-4.2,2.2-9.2,0-13.4c-1-1.9-2.6-3.5-4.5-4.6
	c-1.9-1.1-4.1-1.7-6.4-1.7c-2.2,0-4.4,0.6-6.3,1.7c-1.9,1.1-3.4,2.7-4.4,4.6c-2.2,4.2-2.2,9.2,0,13.4c1,1.9,2.6,3.5,4.4,4.6
	c1.9,1.1,4.1,1.7,6.3,1.7C685.6,98.3,687.8,97.8,689.8,96.7L689.8,96.7z"/>
<path class="st1" d="M731.2,71.7c2.3,1.3,4.2,3.2,5.5,5.5c2.6,5.1,2.6,11.1,0,16.2c-1.3,2.3-3.2,4.3-5.5,5.6c-2.4,1.3-5.1,2-7.8,2
	c-2.6,0-5.2-0.7-7.4-2c-2.2-1.3-4-3.1-5.1-5.3v18.5h-3V69.9h2.8v7.3c1.2-2.3,3-4.2,5.2-5.5c2.3-1.3,4.8-2,7.5-2
	C726.1,69.6,728.8,70.3,731.2,71.7z M729.6,96.7c1.9-1.1,3.4-2.7,4.4-4.7c2.2-4.2,2.2-9.2,0-13.4c-1-1.9-2.6-3.5-4.5-4.6
	c-1.9-1.1-4.1-1.7-6.4-1.7c-2.2,0-4.4,0.6-6.3,1.7c-1.9,1.1-3.4,2.7-4.4,4.6c-2.2,4.2-2.2,9.2,0,13.4c1,1.9,2.6,3.5,4.4,4.6
	c1.9,1.1,4.1,1.7,6.3,1.7C725.4,98.3,727.7,97.8,729.6,96.7L729.6,96.7z"/>
</svg>
