<?xml version="1.0" encoding="utf-8"?>
<!-- Generator: Adobe Illustrator 23.0.1, SVG Export Plug-In . SVG Version: 6.00 Build 0)  -->
<svg version="1.1" id="Layer_1" xmlns="http://www.w3.org/2000/svg" xmlns:xlink="http://www.w3.org/1999/xlink" x="0px" y="0px"
	 viewBox="0 0 738.6 105.4" style="enable-background:new 0 0 738.6 105.4;" xml:space="preserve">
<style type="text/css">
	.st0{fill:#26333B;}
	.st1{fill:#26343C;}
	.st2{fill:#F04141;}
	.st3{fill:#FFCD0F;}
	.st4{fill:#F57391;}
	.st5{fill:#149687;}
	.st6{fill:#50C8E1;}
	.st7{fill:#A5C83C;}
	.st8{fill:#005596;}
</style>
<title>skillpod-logo-2</title>
<g>
	<path class="st0" d="M652.9,65.8c2,2,3.1,4.8,3.1,8.6v19.5h-2.8v-5.5c-1,1.8-2.5,3.3-4.3,4.2c-2.1,1-4.4,1.6-6.8,1.5
		c-3.4,0-6.1-0.8-8.1-2.4c-3.5-3-4-8.2-1-11.8c0.2-0.3,0.5-0.6,0.8-0.8c1.8-1.6,4.8-2.4,8.8-2.4H653v-2.5c0-2.9-0.8-5-2.3-6.6
		s-3.8-2.2-6.8-2.2c-2,0-4,0.4-5.9,1.1c-1.7,0.6-3.4,1.6-4.8,2.8l-1.5-2.2c1.6-1.4,3.5-2.5,5.5-3.2c2.2-0.8,4.5-1.2,6.8-1.2
		C647.9,62.9,650.8,63.9,652.9,65.8z M649,90c1.8-1.3,3.2-3,4-5.1v-5.8h-10.5c-3,0-5.2,0.5-6.6,1.7c-1.3,1.1-2.1,2.8-2,4.5
		c-0.1,1.9,0.8,3.6,2.2,4.8c1.9,1.3,4.1,1.9,6.3,1.7C644.8,91.8,647,91.2,649,90z"/>
	<path class="st0" d="M691.3,64.9c2.3,1.3,4.2,3.2,5.5,5.5c2.6,5.1,2.6,11.1,0,16.2c-1.3,2.3-3.2,4.3-5.5,5.6c-2.4,1.3-5.1,2-7.8,2
		c-2.6,0-5.1-0.7-7.4-2c-2.2-1.3-4-3.1-5.1-5.3v18.5h-3V63.1h2.8v7.3c1.2-2.3,2.9-4.2,5.2-5.5c2.3-1.3,4.8-2,7.5-2
		C686.3,62.8,689,63.5,691.3,64.9z M689.8,89.9c1.9-1.1,3.4-2.7,4.5-4.7c2.2-4.2,2.2-9.2,0-13.4c-1-1.9-2.6-3.5-4.5-4.6
		c-1.9-1.1-4.1-1.7-6.4-1.7c-2.2,0-4.4,0.6-6.3,1.7c-1.9,1.1-3.4,2.7-4.4,4.6c-2.2,4.2-2.2,9.2,0,13.4c1,1.9,2.6,3.5,4.4,4.6
		c1.9,1.1,4.1,1.7,6.3,1.7C685.6,91.6,687.8,91,689.8,89.9L689.8,89.9z"/>
	<path class="st0" d="M731.2,64.9c2.3,1.3,4.2,3.2,5.5,5.5c2.6,5.1,2.6,11.1,0,16.2c-1.3,2.3-3.2,4.3-5.5,5.6c-2.4,1.3-5.1,2-7.8,2
		c-2.6,0-5.2-0.7-7.4-2c-2.2-1.3-4-3.1-5.1-5.3v18.5h-3V63.1h2.8v7.3c1.2-2.3,3-4.2,5.2-5.5c2.3-1.3,4.8-2,7.5-2
		C726.1,62.8,728.8,63.5,731.2,64.9z M729.6,89.9c1.9-1.1,3.4-2.7,4.4-4.7c2.2-4.2,2.2-9.2,0-13.4c-1-1.9-2.6-3.5-4.5-4.6
		c-1.9-1.1-4.1-1.7-6.4-1.7c-2.2,0-4.4,0.6-6.3,1.7c-1.9,1.1-3.4,2.7-4.4,4.6c-2.2,4.2-2.2,9.2,0,13.4c1,1.9,2.6,3.5,4.4,4.6
		c1.9,1.1,4.1,1.7,6.3,1.7C725.4,91.6,727.7,91,729.6,89.9L729.6,89.9z"/>
	<path class="st1" d="M0,86l11.7-6.8c2.5,6.4,7.3,10.6,15.9,10.6c8.2,0,11.1-3.5,11.1-7.3c0-5.1-4.7-7.1-14.9-10.1
		C13.2,69.2,2.9,64.8,2.9,51.6c0-13.1,10.9-20.6,22.8-20.6c11.4,0,20.1,5.8,24.7,15.5l-11.5,6.6c-2.5-5.2-6.2-8.9-13.3-8.9
		c-5.7,0-9.1,3-9.1,6.9c0,4.3,2.7,6.5,13.2,9.7c11,3.5,22.7,7.1,22.7,21.3c0,13-10.4,20.9-25.1,20.9C13.1,103.1,3.8,96.2,0,86"/>
	<polygon class="st1" points="119.7,101.7 95,69.2 95,101.7 81.3,101.7 81.3,32.4 95,32.4 95,63 118.7,32.4 134.5,32.4 108.8,66.1 
		135.5,101.7 	"/>
	<rect x="162.2" y="32.4" class="st1" width="13.7" height="69.3"/>
	<polygon class="st1" points="253.2,88.6 253.2,101.7 213.2,101.7 213.2,32.4 226.8,32.4 226.8,88.6 	"/>
	<polygon class="st1" points="323.9,88.6 323.9,101.7 283.9,101.7 283.9,32.4 297.5,32.4 297.5,88.6 	"/>
	<path class="st1" d="M389.3,55.7c0-6-4.3-10.5-10.1-10.5H367v21h12.2C385,66.2,389.3,61.6,389.3,55.7 M402.8,55.7
		c0,13-10.3,23.2-23.6,23.2H367v22.8h-13.7V32.4h25.8C392.6,32.4,402.8,42.7,402.8,55.7"/>
	<path class="st1" d="M580.2,67.1c0-12.8-8.3-21.6-20.3-21.6H546v43.1h13.9C571.9,88.6,580.2,79.8,580.2,67.1 M593.2,67.1
		c0,19.5-14.2,34.6-33.3,34.6h-27.5V32.4h27.5C579,32.4,593.2,47.6,593.2,67.1"/>
	<g>
		<g>
			<path class="st1" d="M481.7,58.5c0,0.6-0.1,1.2-0.2,1.8c-1,6.6-2.2,13.3-3.4,19.8l-0.3,1.7c-0.2,1-0.6,1.9-1.3,2.6l-5.9,6.2
				c-1.2,1.2-2.9,2-4.6,2h-1.3c-1.7,0-3.3-0.7-4.5-1.8l-6.4-6.4c-0.7-0.7-1.2-1.6-1.4-2.7l-0.3-1.7c-0.7-4.1-1.5-8.1-2.2-12.2
				c-0.1-0.8-0.3-1.7-0.5-2.5c-0.7-3.5-1.3-6.8-0.9-9.7c1.2-8,8.4-14.2,16.5-14.2c1.4,0,2.9,0.2,4.3,0.5
				C476.9,43.8,482,50.8,481.7,58.5L481.7,58.5z M493.5,61.8c0.1-0.9,0.2-1.9,0.3-2.8c0.5-13.3-8.4-25.4-21.3-28.8
				c-2.4-0.6-4.8-0.9-7.3-0.9c-14.2,0-26.4,10.6-28.4,24.5c-0.4,2.8-0.3,5.5,0,8c-3.3,0.4-5.8,3.3-5.8,6.7c0,3.7,3,6.7,6.7,6.7
				c0.5,0,1-0.1,1.4-0.2c0.4,2.3,0.8,4.7,1.3,7l0.3,1.6c0.6,3.5,2.2,6.6,4.7,9.1l6.4,6.4c3.5,3.5,8.1,5.4,13,5.4h1.3
				c5,0,9.8-2.1,13.3-5.7l5.9-6.2c2.3-2.5,3.9-5.5,4.4-8.8l0.3-1.6c0.4-2.4,0.8-4.7,1.3-7.1c0.5,0.1,1,0.2,1.5,0.2
				c3.7,0,6.7-3,6.7-6.7C499.6,65,496.9,62.1,493.5,61.8"/>
		</g>
		<rect x="460.8" class="st2" width="9.8" height="19.8"/>
		
			<rect x="476.5" y="11.6" transform="matrix(0.3461 -0.9382 0.9382 0.3461 300.0967 463.6243)" class="st3" width="12.3" height="9.8"/>
		
			<rect x="501.5" y="35.1" transform="matrix(0.8928 -0.4505 0.4505 0.8928 36.4465 233.0259)" class="st4" width="12.3" height="9.8"/>
		
			<rect x="490.2" y="18.7" transform="matrix(0.7072 -0.707 0.707 0.7072 129.7435 360.4891)" class="st5" width="19.8" height="9.8"/>
		
			<rect x="443.1" y="11.1" transform="matrix(0.9382 -0.346 0.346 0.9382 21.6662 156.1197)" class="st6" width="9.8" height="12.6"/>
		
			<rect x="418" y="34.6" transform="matrix(0.4507 -0.8927 0.8927 0.4507 195.8291 400.014)" class="st7" width="9.8" height="12.5"/>
		
			<rect x="425.7" y="14.5" transform="matrix(0.7071 -0.7071 0.7071 0.7071 108.7765 311.649)" class="st8" width="9.8" height="20"/>
	</g>
</g>
</svg>
