<svg xmlns="http://www.w3.org/2000/svg" viewBox="0 0 100.28 104.6"><defs><style>.a{fill:#26343c;}.b{fill:#f04141;}.c{fill:#ffcd0f;}.d{fill:#f57391;}.e{fill:#149687;}.f{fill:#50c8e1;}.g{fill:#a5c83c;}.h{fill:#005596;}</style></defs><title>skillpod-logo-head</title><path class="a" d="M66.59,58.49q0,.9-.18,1.8c-1,6.6-2.21,13.32-3.37,19.82l-.29,1.7a5,5,0,0,1-1.3,2.58L55.54,90.6a6.35,6.35,0,0,1-4.58,2H49.7a6.25,6.25,0,0,1-4.46-1.84L38.8,84.3a5,5,0,0,1-1.39-2.71l-.3-1.66Q36,73.82,34.91,67.71c-.15-.83-.31-1.66-.47-2.49-.67-3.51-1.3-6.82-.88-9.69A16.69,16.69,0,0,1,54.28,41.84,16.66,16.66,0,0,1,66.59,58.49ZM78.35,61.8c.13-.93.22-1.89.26-2.84a28.64,28.64,0,0,0-57-5.15,29.94,29.94,0,0,0,0,8,6.73,6.73,0,0,0,.9,13.41A6.64,6.64,0,0,0,24,75.1l1.26,7,.3,1.6a16.87,16.87,0,0,0,4.74,9.13l6.43,6.41a18.27,18.27,0,0,0,13,5.36H51a18.44,18.44,0,0,0,13.29-5.7l5.92-6.21a16.79,16.79,0,0,0,4.43-8.84l.29-1.64c.42-2.35.85-4.74,1.27-7.14a7,7,0,0,0,1.53.18,6.74,6.74,0,0,0,.66-13.45"/><rect class="b" x="45.64" width="9.81" height="19.83"/><rect class="c" x="61.35" y="11.63" width="12.3" height="9.81" transform="translate(28.63 74.14) rotate(-69.75)"/><rect class="d" x="86.41" y="35.05" width="12.33" height="9.81" transform="translate(-8.07 45.99) rotate(-26.78)"/><rect class="e" x="75.04" y="18.7" width="19.81" height="9.81" transform="translate(8.18 66.97) rotate(-44.99)"/><rect class="f" x="28" y="11.1" width="9.81" height="12.57" transform="translate(-3.98 12.46) rotate(-20.25)"/><rect class="g" x="2.89" y="34.63" width="9.81" height="12.52" transform="translate(-32.22 29.42) rotate(-63.21)"/><rect class="h" x="10.54" y="14.52" width="9.8" height="20" transform="translate(-12.82 18.1) rotate(-45)"/></svg>