<svg xmlns="http://www.w3.org/2000/svg" viewBox="0 0 360 360"><title>coach_icon</title><path d="M301.45,103.05l8.91,43.09L228.69,163a32,32,0,0,0-24.93,37.41,75.84,75.84,0,0,1,1.37,14.35,75,75,0,1,1-84.7-74.38c.81-.11,1.61-.24,2.41-.41l178.61-37M314.64,68a14.91,14.91,0,0,0-3,.31L116.35,108.68A107,107,0,1,0,237.13,214.8a108.2,108.2,0,0,0-1.95-20.43L333.5,174a15,15,0,0,0,11.64-17.73l-15.8-76.38a15.05,15.05,0,0,0-14.7-12Z"/><circle cx="128.13" cy="212.8" r="34"/><rect x="9.43" y="67.44" width="60.9" height="23.03" rx="11.52" transform="translate(66.56 -5.38) rotate(44.35)"/><rect x="46.29" y="37.67" width="60.9" height="23.03" rx="11.52" transform="translate(96.05 -39.9) rotate(69.58)"/><rect x="92.1" y="33.47" width="60.9" height="23.03" rx="11.52" transform="translate(161.88 -79.5) rotate(87.37)"/></svg>