<svg xmlns="http://www.w3.org/2000/svg" viewBox="0 0 100 100"><title>chapters</title><path d="M55.24,34.36H35.46a2,2,0,0,0-2,2v6a2,2,0,0,0,2,2H55.24a2,2,0,0,0,2-2v-6a2,2,0,0,0-2-2Z"/><path d="M64.54,70.34H35.46a2,2,0,0,0-2,2v6a2,2,0,0,0,2,2H64.54a2,2,0,0,0,2-2v-6a2,2,0,0,0-2-2Z"/><path d="M64.54,52.35H35.46a2,2,0,0,0-2,2v6a2,2,0,0,0,2,2H64.54a2,2,0,0,0,2-2v-6a2,2,0,0,0-2-2Z"/><path d="M69.61,0H21.17a7,7,0,0,0-7,7V93a7,7,0,0,0,7,7H82a7,7,0,0,0,7-7V18.86a5,5,0,0,0-1.53-3.6L73.08,1.4A5,5,0,0,0,69.61,0ZM79,87a3,3,0,0,1-3,3H27.17a3,3,0,0,1-3-3V13a3,3,0,0,1,3-3H61.66V21.68a5,5,0,0,0,5,5H79Z"/></svg>