<svg xmlns="http://www.w3.org/2000/svg" viewBox="0 0 192 192" style="fill:#26333b;"><title>dashboard</title><path d="M86.72,184.55H47.41a47.05,47.05,0,0,1-47-47V54.45a47.05,47.05,0,0,1,47-47H86.72a47.06,47.06,0,0,1,47,47v83.1A47.06,47.06,0,0,1,86.72,184.55ZM47.41,29.45a25,25,0,0,0-25,25v83.1a25,25,0,0,0,25,25H86.72a25,25,0,0,0,25-25V54.45a25,25,0,0,0-25-25Z"/><path d="M157.59,33.54h-8.65a5,5,0,0,0-5,5v10a5,5,0,0,0,5,5h8.65a14,14,0,0,1,14,14v56.92a14,14,0,0,1-14,14h-8.65a5,5,0,0,0-5,5v10a5,5,0,0,0,5,5h8.65a34,34,0,0,0,34-34V67.54A34,34,0,0,0,157.59,33.54Z"/></svg>