<svg xmlns="http://www.w3.org/2000/svg" viewBox="0 0 360 360"><defs><style>.a{fill:#fff;}</style></defs><title>edit</title><path class="a" d="M128.23,266.66a2,2,0,0,1-1.42-.59L82.27,221.52a2,2,0,0,1,0-2.82L228.64,72.32a2,2,0,0,1,1.41-.58,2,2,0,0,1,1.42.58L276,116.87a2,2,0,0,1,0,2.83L129.64,266.07A1.93,1.93,0,0,1,128.23,266.66Z"/><path d="M230.05,93.54l24.75,24.75L128.23,244.86l-24.75-24.75L230.05,93.54m0-37.8A18,18,0,0,0,217.32,61L71,207.38a18,18,0,0,0,0,25.46l44.55,44.55a18,18,0,0,0,25.46,0L287.33,131a18,18,0,0,0,0-25.45L242.78,61a18,18,0,0,0-12.73-5.27Z"/><path class="a" d="M310.66,84.22a1.92,1.92,0,0,1-1.41-.58L264.7,39.09a1.93,1.93,0,0,1-.59-1.41,2,2,0,0,1,.59-1.42l9.19-9.19a2,2,0,0,1,1.42-.59,1.93,1.93,0,0,1,1.41.59l44.55,44.55a1.92,1.92,0,0,1,.58,1.41,1.94,1.94,0,0,1-.58,1.42l-9.19,9.19A1.94,1.94,0,0,1,310.66,84.22Z"/><path d="M275.31,10.48a17.92,17.92,0,0,0-12.73,5.28L253.39,25a18,18,0,0,0,0,25.45L297.93,95a18,18,0,0,0,25.46,0l9.19-9.19a18,18,0,0,0,0-25.46L288,15.76a17.92,17.92,0,0,0-12.72-5.28Z"/><polygon class="a" points="55.75 262.01 86.56 292.82 44.47 304.1 55.75 262.01"/><path d="M51.81,239.69c-4,0-7.46,3.05-9,8.79L26.5,309.34c-2.15,8,1.53,13.34,8.41,13.34a16.55,16.55,0,0,0,4.32-.62l60.85-16.3c9.56-2.56,11.66-10.39,4.66-17.39L60.19,243.82c-2.79-2.79-5.72-4.13-8.38-4.13Z"/></svg>