<svg xmlns="http://www.w3.org/2000/svg" viewBox="0 0 103 103"><title>help</title><path d="M56.48,66.6a2,2,0,0,1-2,2H47.16a2,2,0,0,1-2-2V64.94c0-1.1.09-2.9.21-4a23.73,23.73,0,0,1,1.78-6.81c1.32-2.56,3.85-5.58,7.58-9a50.64,50.64,0,0,0,7.59-8.19,12.16,12.16,0,0,0,2-6.87,11.57,11.57,0,0,0-3.61-9q-3.62-3.31-9.76-3.31c-7,0-13.15,9.87-13.15,9.87a2.46,2.46,0,0,1-2.91.92l-6.67-2.79a1.81,1.81,0,0,1-.91-2.54s4.13-7.83,8.46-11.12A24.43,24.43,0,0,1,50.94,7.17q10.85,0,17.77,6.44a21.5,21.5,0,0,1,6.92,16.44,19.92,19.92,0,0,1-2.53,9.7q-2.52,4.64-9.51,11C58.93,55,57,61.5,57,61.5a16.71,16.71,0,0,0-.56,3.92ZM59,87.87a8,8,0,0,1-2.35,5.78,8.21,8.21,0,0,1-11.62,0A8.21,8.21,0,0,1,45,82a8.16,8.16,0,0,1,14,5.84Z"/></svg>