<svg xmlns="http://www.w3.org/2000/svg" viewBox="0 0 257.56 360"><title>locked</title><path d="M237.44,137.52h-8.6v-36.9C228.84,45.28,183.57,0,128.22,0h0C72.88,0,27.6,45.28,27.6,100.62v36.9H20.12A20.12,20.12,0,0,0,0,157.64V339.88A20.12,20.12,0,0,0,20.12,360H237.44a20.12,20.12,0,0,0,20.12-20.12V157.64A20.12,20.12,0,0,0,237.44,137.52ZM145,256.62v34.06a10.06,10.06,0,0,1-10.06,10.07H123.75a10.06,10.06,0,0,1-10.06-10.07V256.62a33.54,33.54,0,1,1,31.3,0ZM61.14,137.52v-36.9a67.08,67.08,0,0,1,134.16,0v36.9Z"/></svg>