<svg xmlns="http://www.w3.org/2000/svg" viewBox="0 0 360 360"><defs><style>.a{fill:none;stroke:#000;stroke-linejoin:round;stroke-width:32px;}</style></defs><title>tips_icon</title><path d="M180,32.46A102.67,102.67,0,0,1,231.3,224.11l-4.47,2.6a32,32,0,0,0-15.94,27.68v11.49H149.12V254.39a32,32,0,0,0-16-27.7l-4.48-2.59A102.67,102.67,0,0,1,180,32.46m0-32C105.71.46,45.26,60.91,45.26,135.21a135.21,135.21,0,0,0,67.38,116.58l4.48,2.6v43.49H242.89V254.39l4.47-2.6a135.23,135.23,0,0,0,67.4-116.58C314.76,60.91,254.31.46,180,.46Z"/><polyline class="a" points="179.63 283.3 179.63 161.3 133.55 117.94"/><line class="a" x1="225.9" y1="118.56" x2="179.63" y2="161.3"/><rect x="117.13" y="314.8" width="125" height="35"/></svg>