<svg xmlns="http://www.w3.org/2000/svg" viewBox="0 0 100 100"><defs><style>.a{fill:#fff;}</style></defs><title>addProject</title><path class="a" d="M37.49,14.29H25.4V2.2A2.2,2.2,0,0,0,23.2,0H18.07a2.2,2.2,0,0,0-2.2,2.2V14.29H3.78a2.19,2.19,0,0,0-2.19,2.19v5.13a2.19,2.19,0,0,0,2.19,2.2H15.87V35.9a2.21,2.21,0,0,0,2.2,2.2H23.2a2.21,2.21,0,0,0,2.2-2.2V23.81H37.49a2.19,2.19,0,0,0,2.19-2.2V16.48A2.19,2.19,0,0,0,37.49,14.29Z"/><path class="a" d="M65.47,6.35H53.78a2.19,2.19,0,0,0-2.19,2.2v8.78a2.2,2.2,0,0,0,2.19,2.2H65.47A19.77,19.77,0,0,1,85.24,39.29V67.06A19.77,19.77,0,0,1,65.47,86.82H37.71A19.77,19.77,0,0,1,17.94,67.06V55.37a2.2,2.2,0,0,0-2.2-2.2H7a2.21,2.21,0,0,0-2.2,2.2V67.06a33,33,0,0,0,33,32.94H65.47A32.94,32.94,0,0,0,98.41,67.06V39.29A32.94,32.94,0,0,0,65.47,6.35Z"/></svg>