<svg xmlns="http://www.w3.org/2000/svg" viewBox="0 0 200 200"><title>communication</title><path d="M100.35,11.07a74.4,74.4,0,0,1,47,16.4l6.15-7.7a85.28,85.28,0,0,0-105.89-.25l6.12,7.72A74.41,74.41,0,0,1,100.35,11.07Z"/><path d="M140.56,36a64.54,64.54,0,0,0-80.1-.26l6.11,7.73a54.71,54.71,0,0,1,67.83.22Z"/><path d="M73.37,51.87l6.08,7.76a34,34,0,0,1,42.06.2l6.15-7.69a43.84,43.84,0,0,0-54.29-.27Z"/><path d="M172.13,143.17a23.14,23.14,0,0,0-26.25-4.52l-28.13-37a23.15,23.15,0,0,0-1-31.57h0a23.13,23.13,0,0,0-33.49,31.88l-28,36.89a22.89,22.89,0,0,0-10.27-2.44,23.18,23.18,0,1,0,18,8.59l28.34-37.3a23.08,23.08,0,0,0,18.61-.18l28.23,37.15a23.13,23.13,0,1,0,34.06-1.48ZM44.92,172.82a13.29,13.29,0,1,1,13.29-13.29A13.3,13.3,0,0,1,44.92,172.82ZM92.4,97.05l-.52-.4a12.16,12.16,0,0,1-.93-.84,13.52,13.52,0,1,1,1.45,1.24Zm72.76,71.88a13.29,13.29,0,1,1,0-18.79h0a13.27,13.27,0,0,1,0,18.79Z"/></svg>