<svg xmlns="http://www.w3.org/2000/svg" viewBox="0 0 103 103"><title>dashboard</title><path d="M35.79,9.29a3.71,3.71,0,0,1,3.7,3.7V26.5a3.71,3.71,0,0,1-3.7,3.7H13a3.72,3.72,0,0,1-3.7-3.7V13A3.72,3.72,0,0,1,13,9.29h22.8m0-9.29H13A13,13,0,0,0,0,13V26.5a13,13,0,0,0,13,13h22.8a13,13,0,0,0,13-13V13a13,13,0,0,0-13-13Z"/><path d="M90,72.8a3.72,3.72,0,0,1,3.7,3.7V90a3.72,3.72,0,0,1-3.7,3.7H67.21a3.71,3.71,0,0,1-3.7-3.7V76.5a3.71,3.71,0,0,1,3.7-3.7H90m0-9.29H67.21a13,13,0,0,0-13,13V90a13,13,0,0,0,13,13H90a13,13,0,0,0,13-13V76.5a13,13,0,0,0-13-13Z"/><path d="M34.14,54.22a5.36,5.36,0,0,1,5.35,5.35V88.35a5.37,5.37,0,0,1-5.35,5.36H14.65a5.37,5.37,0,0,1-5.36-5.36V59.57a5.36,5.36,0,0,1,5.36-5.35H34.14m0-9.3H14.65A14.66,14.66,0,0,0,0,59.57V88.35A14.66,14.66,0,0,0,14.65,103H34.14A14.66,14.66,0,0,0,48.78,88.35V59.57A14.66,14.66,0,0,0,34.14,44.92Z"/><path d="M88.35,9.29a5.37,5.37,0,0,1,5.36,5.36V43.43a5.36,5.36,0,0,1-5.36,5.35H68.86a5.36,5.36,0,0,1-5.35-5.35V14.65a5.37,5.37,0,0,1,5.35-5.36H88.35m0-9.29H68.86A14.66,14.66,0,0,0,54.22,14.65V43.43A14.66,14.66,0,0,0,68.86,58.08H88.35A14.66,14.66,0,0,0,103,43.43V14.65A14.66,14.66,0,0,0,88.35,0Z"/></svg>