<svg xmlns="http://www.w3.org/2000/svg" viewBox="0 0 200 200"><title>designInnovation</title><path d="M102.16,11.08,102.9.56a78.23,78.23,0,0,0-11,0l.73,10.53A69.46,69.46,0,0,1,102.16,11.08Z"/><path d="M67.84,17.72,63.21,8.23a81.54,81.54,0,0,0-9.56,5.52l5.9,8.75A70.18,70.18,0,0,1,67.84,17.72Z"/><path d="M41.43,40.62l-8.75-5.9a80,80,0,0,0-5.53,9.57l9.49,4.62A69.89,69.89,0,0,1,41.43,40.62Z"/><path d="M30,73.67l-10.53-.74a78.37,78.37,0,0,0,0,11L30,83.24A69.46,69.46,0,0,1,30,73.67Z"/><path d="M27.15,112.62a81.15,81.15,0,0,0,5.53,9.57l8.75-5.91A68.12,68.12,0,0,1,36.64,108Z"/><path d="M153.33,116.29l8.75,5.9a79.91,79.91,0,0,0,5.52-9.57L158.11,108A69,69,0,0,1,153.33,116.29Z"/><path d="M175.28,72.93l-10.53.74a69.46,69.46,0,0,1,0,9.57l10.53.74A81.5,81.5,0,0,0,175.28,72.93Z"/><path d="M167.6,44.29a81.08,81.08,0,0,0-5.52-9.57l-8.75,5.91a69.46,69.46,0,0,1,4.79,8.29Z"/><path d="M141.11,13.75a81.29,81.29,0,0,0-9.57-5.52l-4.62,9.49a69,69,0,0,1,8.29,4.78Z"/><path d="M136.63,36.7A57.15,57.15,0,0,0,93.17,21.33,58,58,0,0,0,39.76,74.09a57.4,57.4,0,0,0,19.24,48A28.54,28.54,0,0,1,68.49,141l.72,26.85a14.16,14.16,0,0,0,14.23,13.85h27.62a14.32,14.32,0,0,0,14.23-13.89l.64-26.9a28,28,0,0,1,9.26-18.47,57.63,57.63,0,0,0,1.44-85.71ZM79.22,147.12h36l-.16,6.65H79.39ZM91.3,107.2h12.18v29.37H91.3ZM92,96.65,97.5,84.14l5.35,12.51Zm19.1,74.46H83.44a3.66,3.66,0,0,1-3.68-3.58l-.08-3.2h35.14l-.08,3.19A3.7,3.7,0,0,1,111.06,171.11Zm17.19-56.66a38.19,38.19,0,0,0-12.35,22.12H114V97a5.3,5.3,0,0,0-.42-2.08L102.44,68.86a5.28,5.28,0,0,0-4.82-3.2,5.18,5.18,0,0,0-4.86,3.14L81.2,94.88A5.24,5.24,0,0,0,80.74,97v39.55h-2.2A39,39,0,0,0,66,114.18a47.14,47.14,0,0,1,27.9-82.32c1.14-.09,2.28-.13,3.42-.13a46.7,46.7,0,0,1,32.1,12.68,47.09,47.09,0,0,1-1.18,70Z"/></svg>