<svg xmlns="http://www.w3.org/2000/svg" viewBox="0 0 200 200"><title>infoManagement</title><path d="M165.07,79.69l.27-1.68a65.28,65.28,0,0,0,.7-7.27h0A66.28,66.28,0,0,0,34.2,58.84a73.41,73.41,0,0,0,.4,20.84,16.54,16.54,0,0,0,3.13,32.78,17,17,0,0,0,2.67-.23c1.06,5.94,2.22,12.29,3.51,19.35l.82,4.44a34.62,34.62,0,0,0,9.72,18.72L71.8,172A38.31,38.31,0,0,0,99,183.27h3.4a38.71,38.71,0,0,0,27.9-12l16-16.75a34.56,34.56,0,0,0,9.12-18.21l.8-4.5c1.15-6.45,2.3-13,3.45-19.57a16.53,16.53,0,0,0,5.43-32.6ZM37.73,101.9a6,6,0,0,1-1.34-11.8c.12.66.24,1.31.37,2,.41,2.16.82,4.3,1.19,6.42.2,1.1.39,2.22.59,3.34A5.42,5.42,0,0,1,37.73,101.9ZM145.79,130l-.81,4.56a24.15,24.15,0,0,1-6.35,12.72l-16,16.74a28.08,28.08,0,0,1-20.26,8.68H99a27.84,27.84,0,0,1-19.76-8.16L61.9,147.26a24.09,24.09,0,0,1-6.77-13.1l-.83-4.49c-2.34-12.75-4.23-23.25-5.95-33-.38-2.17-.8-4.36-1.22-6.57-1.9-9.92-3.86-20.18-2.48-29.73a55.72,55.72,0,0,1,110.84,10,53.47,53.47,0,0,1-.59,6.08C152.15,94.29,148.92,112.45,145.79,130Zm16.09-28.11c-.15,0-.29,0-.44,0q1-5.85,2-11.71a6,6,0,0,1-1.52,11.75Z"/><path d="M106.75,73.1H93.24a6.8,6.8,0,0,0-6.8,6.79V93.4a6.8,6.8,0,0,0,6.8,6.79h13.51a6.8,6.8,0,0,0,6.79-6.79V79.89A6.8,6.8,0,0,0,106.75,73.1ZM103,89.63H97v-6h6Z"/><path d="M134.31,67.4a15.22,15.22,0,0,0-15.2-15.2h-3.2V43.11H105.35V52.2h-11V43.11H83.82V52.2H80.63a15.22,15.22,0,0,0-15.2,15.2v3.2h-9.1V81.16h9.1v11h-9.1v10.56h9.1v3.2a15.22,15.22,0,0,0,15.2,15.2h3.19v9.09H94.38v-9.09h11v9.09h10.56v-9.09h3.2a15.22,15.22,0,0,0,15.2-15.2v-3.2h9.1V92.13h-9.1v-11h9.1V70.6h-9.1Zm-10.56,38.49a4.64,4.64,0,0,1-4.64,4.64H80.63A4.64,4.64,0,0,1,76,105.89V67.4a4.64,4.64,0,0,1,4.64-4.64h38.48a4.64,4.64,0,0,1,4.64,4.64Z"/></svg>