<svg xmlns="http://www.w3.org/2000/svg" xmlns:xlink="http://www.w3.org/1999/xlink" viewBox="0 0 738.61 112.15"><defs><style>.a{fill:none;}.b{clip-path:url(#a);}.c{fill:#26333b;}.d{fill:#ed4724;}.e{fill:#4ec1cd;}.f{fill:#fac18e;}.g{fill:#208f48;}.h{fill:#c3daad;}.i{fill:#f2dc45;}.j{fill:#074667;}</style><clipPath id="a"><rect class="a" width="593.22" height="104.65"/></clipPath></defs><title>skillpod-logo-2</title><g class="b"><path class="c" d="M0,85.86,11.67,79C14.15,85.46,19,89.62,27.6,89.62c8.21,0,11.08-3.46,11.08-7.32,0-5.15-4.65-7.13-14.94-10.09C13.16,69.14,2.87,64.69,2.87,51.53S13.75,31,25.62,31C37,31,45.71,36.79,50.36,46.48L38.88,53.11c-2.47-5.24-6.23-8.9-13.26-8.9-5.73,0-9.1,3-9.1,6.92,0,4.26,2.67,6.53,13.16,9.7,11,3.46,22.65,7.12,22.65,21.27C52.33,95.06,42,103,27.2,103,13.06,103,3.76,96.15,0,85.86"/></g><polygon class="c" points="119.72 101.59 94.99 69.14 94.99 101.59 81.34 101.59 81.34 32.34 94.99 32.34 94.99 62.91 118.73 32.34 134.46 32.34 108.84 65.97 135.45 101.59 119.72 101.59"/><rect class="c" x="162.22" y="32.34" width="13.65" height="69.25"/><polygon class="c" points="253.25 88.53 253.25 101.59 213.18 101.59 213.18 32.34 226.83 32.34 226.83 88.53 253.25 88.53"/><polygon class="c" points="323.94 88.53 323.94 101.59 283.88 101.59 283.88 32.34 297.53 32.34 297.53 88.53 323.94 88.53"/><g class="b"><path class="c" d="M389.29,55.59c0-6-4.25-10.49-10.09-10.49H367v21H379.2c5.84,0,10.09-4.55,10.09-10.48m13.56,0c0,13-10.29,23.24-23.65,23.24H367v22.76H353.38V32.34H379.2c13.36,0,23.65,10.29,23.65,23.25"/><path class="c" d="M580.16,67c0-12.76-8.31-21.56-20.28-21.56H546V88.53h13.85c12,0,20.28-8.8,20.28-21.57m13.06,0c0,19.49-14.25,34.63-33.34,34.63h-27.5V32.34h27.5c19.09,0,33.34,15.13,33.34,34.62"/><path class="c" d="M481.06,58.52a15.44,15.44,0,0,1-.17,1.8c-1,6.6-2.22,13.33-3.37,19.83l-.3,1.7a5,5,0,0,1-1.3,2.59L470,90.65a6.31,6.31,0,0,1-4.57,2h-1.27a6.31,6.31,0,0,1-4.46-1.84l-6.44-6.42a4.94,4.94,0,0,1-1.39-2.72l-.3-1.66q-1.12-6.1-2.21-12.22c-.14-.83-.3-1.66-.46-2.5-.67-3.51-1.3-6.82-.89-9.69a16.71,16.71,0,0,1,20.74-13.7,16.66,16.66,0,0,1,12.31,16.66Zm11.77,3.31c.13-.93.22-1.89.26-2.84a28.65,28.65,0,0,0-57-5.15,29.94,29.94,0,0,0,0,8,6.74,6.74,0,0,0,.9,13.42,7.35,7.35,0,0,0,1.42-.15l1.26,7,.3,1.6a16.89,16.89,0,0,0,4.74,9.14l6.44,6.41a18.23,18.23,0,0,0,13,5.36h1.27A18.49,18.49,0,0,0,478.72,99l5.92-6.22a16.87,16.87,0,0,0,4.44-8.85l.29-1.63c.42-2.36.84-4.75,1.26-7.15a7.13,7.13,0,0,0,1.54.18,6.75,6.75,0,0,0,.66-13.46"/></g><rect class="d" x="460.11" width="9.81" height="19.84"/><rect class="e" x="475.82" y="11.63" width="12.31" height="9.81" transform="translate(299.61 462.99) rotate(-69.75)"/><rect class="f" x="500.89" y="35.07" width="12.33" height="9.81" transform="translate(36.4 232.81) rotate(-26.79)"/><rect class="g" x="489.52" y="18.71" width="19.82" height="9.81" transform="translate(129.58 360.07) rotate(-45)"/><rect class="h" x="442.46" y="11.11" width="9.81" height="12.57" transform="translate(21.63 155.91) rotate(-20.25)"/><rect class="i" x="417.33" y="34.65" width="9.81" height="12.52" transform="translate(195.41 399.39) rotate(-63.21)"/><rect class="j" x="424.98" y="14.53" width="9.81" height="20.01" transform="translate(108.55 311.14) rotate(-45)"/><path class="c" d="M652.89,72.59c2,2,3.07,4.81,3.07,8.59v19.53h-2.84V95.22a10.3,10.3,0,0,1-4.3,4.22,14.33,14.33,0,0,1-6.79,1.5c-3.42,0-6.13-.8-8.11-2.42a8.36,8.36,0,0,1-.24-12.59c1.83-1.6,4.75-2.39,8.76-2.39H653V81.06c0-2.87-.77-5-2.33-6.55s-3.82-2.24-6.81-2.24A16.37,16.37,0,0,0,638,73.33a14.77,14.77,0,0,0-4.75,2.83L631.76,74a16.51,16.51,0,0,1,5.55-3.22,20.34,20.34,0,0,1,6.79-1.15C647.91,69.67,650.84,70.65,652.89,72.59ZM649,96.75a10.73,10.73,0,0,0,4-5.13V85.84H642.5q-4.54,0-6.58,1.65a5.55,5.55,0,0,0-2,4.54,5.69,5.69,0,0,0,2.24,4.75,10.08,10.08,0,0,0,6.31,1.74A11.58,11.58,0,0,0,649,96.75Z"/><path class="c" d="M691.35,71.68a14.39,14.39,0,0,1,5.46,5.54,17.56,17.56,0,0,1,0,16.2A14.15,14.15,0,0,1,691.35,99a15.54,15.54,0,0,1-7.78,2A14.4,14.4,0,0,1,676.19,99a13.2,13.2,0,0,1-5.13-5.34v18.47h-2.95V69.91h2.83v7.26a13.42,13.42,0,0,1,5.16-5.52,14.36,14.36,0,0,1,7.47-2A15.26,15.26,0,0,1,691.35,71.68Zm-1.59,25A11.91,11.91,0,0,0,694.22,92a14.77,14.77,0,0,0,0-13.45,11.82,11.82,0,0,0-4.46-4.6,12.42,12.42,0,0,0-6.37-1.65A12.26,12.26,0,0,0,677.05,74a11.81,11.81,0,0,0-4.43,4.6,14.77,14.77,0,0,0,0,13.45,11.91,11.91,0,0,0,4.43,4.61,12.26,12.26,0,0,0,6.34,1.65A12.42,12.42,0,0,0,689.76,96.64Z"/><path class="c" d="M731.18,71.68a14.39,14.39,0,0,1,5.46,5.54,17.64,17.64,0,0,1,0,16.2A14.15,14.15,0,0,1,731.18,99a15.58,15.58,0,0,1-7.79,2A14.39,14.39,0,0,1,716,99a13.16,13.16,0,0,1-5.14-5.34v18.47h-3V69.91h2.83v7.26a13.38,13.38,0,0,1,5.17-5.52,14.33,14.33,0,0,1,7.46-2A15.3,15.3,0,0,1,731.18,71.68Zm-1.59,25A11.89,11.89,0,0,0,734,92a14.77,14.77,0,0,0,0-13.45,11.79,11.79,0,0,0-4.45-4.6,12.46,12.46,0,0,0-6.38-1.65A12.26,12.26,0,0,0,716.87,74a11.79,11.79,0,0,0-4.42,4.6,14.69,14.69,0,0,0,0,13.45,11.88,11.88,0,0,0,4.42,4.61,12.26,12.26,0,0,0,6.34,1.65A12.46,12.46,0,0,0,729.59,96.64Z"/></svg>