<svg xmlns="http://www.w3.org/2000/svg" viewBox="0 0 200 200"><title>smarterLearning</title><path d="M106.77,1.76a71.4,71.4,0,0,0-45.56,126.4L21.45,176.54l8.14,6.69,40.22-48.94a71.42,71.42,0,1,0,37-132.53Zm0,132.32a60.9,60.9,0,1,1,60.89-60.89A61,61,0,0,1,106.77,134.08Z"/><path d="M137.37,71.67c.23-1.43.47-2.86.69-4.29a33.85,33.85,0,0,0,.33-3.48h0a31.66,31.66,0,0,0-63-5.69c-.68,4.7,0,9.34.79,13.55a6.86,6.86,0,0,0,2,13.44c.16,0,.3,0,.46,0l1,5.5L80,92.53a17.92,17.92,0,0,0,5,9.7l7.51,7.49a19.52,19.52,0,0,0,13.87,5.73h1.48a19.72,19.72,0,0,0,14.23-6.1l6.91-7.24a17.93,17.93,0,0,0,4.72-9.42L134,91q.51-2.92,1-5.88a5.32,5.32,0,0,0,.56.06,6.87,6.87,0,0,0,1.73-13.52Zm-9.73-5.9c-1.2,7.8-2.61,15.72-4,23.39l-.31,1.74a7.46,7.46,0,0,1-2,3.94l-6.91,7.25a9.18,9.18,0,0,1-6.6,2.82H106.4a9.06,9.06,0,0,1-6.44-2.66l-7.5-7.48a7.48,7.48,0,0,1-2.11-4.09L90,88.74q-1.32-7.12-2.57-14.27c-.17-1-.36-1.91-.54-2.88-.81-4.24-1.58-8.24-1-11.88a21.53,21.53,0,0,1,21-18.11,21.06,21.06,0,0,1,21.07,21.88A19.3,19.3,0,0,1,127.64,65.77Z"/><path d="M106.77,95.71A9.26,9.26,0,0,0,116,86.46H97.52A9.25,9.25,0,0,0,106.77,95.71Z"/></svg>