<svg xmlns="http://www.w3.org/2000/svg" viewBox="0 0 112.48 129.21"><title>communication</title><rect x="30.91" y="59.6" width="7" height="38.51" transform="translate(-44.58 112.96) rotate(-89.78)"/><rect x="15.38" y="62.1" width="7" height="7.34" transform="translate(-46.97 84.39) rotate(-89.77)"/><rect x="37.51" y="53.16" width="7" height="25.41" transform="translate(-25 106.63) rotate(-89.79)"/><rect x="75.19" y="5.58" width="7" height="37.51" transform="translate(54.04 102.93) rotate(-89.77)"/><rect x="90.22" y="33.75" width="7" height="7.34" transform="translate(55.92 130.98) rotate(-89.76)"/><rect x="68.59" y="25.13" width="7" height="24.41" transform="translate(34.47 109.27) rotate(-89.78)"/><path d="M81.93,89.94h-.12a3.5,3.5,0,0,1-1.69-6.56C89.51,78.14,92.21,70.23,92.69,60l-21.78-.09,0-7,25.35.1a3.5,3.5,0,0,1,3.48,3.52c0,7.25-.78,15-4.63,21.74a24.45,24.45,0,0,0,2.72-2.48c4.94-5.28,7.57-12.75,7.61-21.6,0-9.62,0-31.69,0-31.92A15.16,15.16,0,0,0,90.38,7.09L67.37,7H67.3A15.14,15.14,0,0,0,52.17,22.07l-.08,17.85-7,0L45.17,22A22.14,22.14,0,0,1,67.3,0h.09l23,.09a22.16,22.16,0,0,1,22,22.22c0,.2.06,22.3,0,31.94,0,10.65-3.33,19.76-9.5,26.35A29,29,0,0,1,81.93,89.94Z"/><path d="M30.1,129.21h0a28.45,28.45,0,0,1-21-9.69C3.12,112.82,0,103.65,0,93c0-9.62,0-27,0-27.18A22.18,22.18,0,0,1,22.13,43.74l24.11.09a22.16,22.16,0,0,1,22,22.22l0,11.43a22.18,22.18,0,0,1-22.13,22H46l-26.52-.3c.4,10.2,3,18.13,12.37,23.45a3.5,3.5,0,0,1-1.73,6.54ZM22.2,50.74A15.17,15.17,0,0,0,7,65.81C7,66,7.05,83.37,7,93c0,8.9,2.5,16.45,7.32,21.83a23,23,0,0,0,2.35,2.29c-3.64-6.7-4.31-14.34-4.28-21.48a3.52,3.52,0,0,1,3.54-3.48l30.12.34A15.18,15.18,0,0,0,61.23,77.45L61.28,66A15.16,15.16,0,0,0,46.21,50.83Z"/></svg>