<svg xmlns="http://www.w3.org/2000/svg" viewBox="0 0 200 200"><title>selfWork</title><path d="M93.53,151.4l-4.34,9.67a27.12,27.12,0,0,0,18.63,1.3l-2.95-10.18A16.6,16.6,0,0,1,93.53,151.4Z"/><path d="M100.27,109.14v10.59A16.55,16.55,0,0,1,112,148l7.49,7.5a27.14,27.14,0,0,0-19.19-46.34Z"/><path d="M170.78.42H30A8.39,8.39,0,0,0,21.57,8.8V39.94a12.07,12.07,0,0,0,1.63,6l38.16,65.56a46.14,46.14,0,1,0,78.06.37L177.54,46a12,12,0,0,0,1.62-6V8.8A8.39,8.39,0,0,0,170.78.42ZM100.34,85.87,76.48,47h47.71ZM130.7,36.44H70L54.36,11h92Zm-98.53,3.5V11h9.51L90.87,91.11a46,46,0,0,0-22.32,11.71L32.36,40.64A1.47,1.47,0,0,1,32.17,39.94Zm68.1,131.89a35.55,35.55,0,1,1,35.55-35.54A35.58,35.58,0,0,1,100.27,171.83ZM168.56,40a1.47,1.47,0,0,1-.19.7l-36.1,62.44a46.06,46.06,0,0,0-22.48-12L159,11h9.56Z"/><path d="M151,171.55l8.51,6.31a80.37,80.37,0,0,0,6-9.34l-9.31-5.07A70.33,70.33,0,0,1,151,171.55Z"/><path d="M168.94,119.4a79.2,79.2,0,0,0-4-10.34l-9.59,4.52a69.16,69.16,0,0,1,3.48,9Z"/><path d="M160.79,139.29a70,70,0,0,1,0,9.61l10.57.74a78.94,78.94,0,0,0,0-11.09Z"/><path d="M35.1,168.52a80.37,80.37,0,0,0,6,9.34l8.51-6.31a70.33,70.33,0,0,1-5.18-8.1Z"/><path d="M45.25,113.58l-9.59-4.52a79.2,79.2,0,0,0-4,10.34l10.12,3.14A69.16,69.16,0,0,1,45.25,113.58Z"/><path d="M39.8,139.29l-10.57-.74a78.94,78.94,0,0,0,0,11.09l10.57-.74A70,70,0,0,1,39.8,139.29Z"/></svg>