<?xml version="1.0" encoding="utf-8"?>
<!-- Generator: Adobe Illustrator 23.0.2, SVG Export Plug-In . SVG Version: 6.00 Build 0)  -->
<svg version="1.1" id="Layer_1" xmlns="http://www.w3.org/2000/svg" xmlns:xlink="http://www.w3.org/1999/xlink" x="0px" y="0px"
	 viewBox="0 0 156.8 181.5" style="enable-background:new 0 0 156.8 181.5;" xml:space="preserve">
<title>smarterLearning</title>
<path d="M85.3,0C45.9,0,13.9,31.9,13.9,71.4c0,21.3,9.5,41.5,25.9,55L0,174.8l8.1,6.7l40.2-48.9c33.8,20.4,77.7,9.6,98.1-24.1
	s9.6-77.7-24.1-98.1C111.1,3.6,98.4,0,85.3,0L85.3,0z M85.3,132.3c-33.6,0-60.9-27.3-60.9-60.9s27.3-60.9,60.9-60.9
	s60.9,27.3,60.9,60.9c0,0,0,0,0,0C146.1,105,118.9,132.3,85.3,132.3z"/>
<path d="M115.9,69.9c0.2-1.4,0.5-2.9,0.7-4.3c0.2-1.2,0.3-2.3,0.3-3.5l0,0c0.8-17.5-12.7-32.3-30.2-33.1
	c-16.4-0.7-30.6,11.1-32.8,27.4c-0.7,4.7,0,9.3,0.8,13.6c-3.6,1.1-5.7,4.9-4.6,8.5c0.9,2.9,3.6,4.9,6.6,4.9c0.2,0,0.3,0,0.5,0l1,5.5
	l0.4,1.8c0.6,3.7,2.4,7.1,5,9.7l7.5,7.5c3.7,3.7,8.7,5.7,13.9,5.7h1.5c5.4,0,10.5-2.2,14.2-6.1l6.9-7.2c2.5-2.6,4.1-5.9,4.7-9.4
	l0.3-1.7c0.3-1.9,0.7-3.9,1-5.9c0.2,0,0.4,0,0.6,0.1c3.8,0,6.9-3.1,6.9-6.9C121,73.4,118.9,70.7,115.9,69.9L115.9,69.9z M106.2,64
	c-1.2,7.8-2.6,15.7-4,23.4l-0.3,1.7c-0.3,1.5-1,2.9-2,3.9l-6.9,7.2c-1.7,1.8-4.1,2.8-6.6,2.8h-1.4c-2.4,0-4.7-1-6.4-2.7L71,93
	c-1.1-1.1-1.9-2.5-2.1-4.1L68.6,87c-0.9-4.7-1.7-9.5-2.6-14.3c-0.2-1-0.4-1.9-0.5-2.9c-0.8-4.2-1.6-8.2-1-11.9
	c1.7-10.3,10.5-18,21-18.1c11.6,0,21.1,9.4,21.1,21c0,0.3,0,0.6,0,0.8C106.4,62.5,106.3,63.3,106.2,64z"/>
<path d="M85.3,94c5.1,0,9.2-4.2,9.2-9.2H76.1C76.1,89.8,80.2,94,85.3,94L85.3,94z"/>
</svg>
