<svg xmlns="http://www.w3.org/2000/svg" viewBox="0 0 200 200"><title>strategicThinking</title><path d="M57.35,133.11a17.28,17.28,0,1,0,12.21,5.06A17.15,17.15,0,0,0,57.35,133.11Zm5.27,22.54a7.45,7.45,0,1,1,0-10.54h0a7.46,7.46,0,0,1,0,10.54Z"/><path d="M171.47,52.1a22,22,0,0,0-8.64-5.36,22.17,22.17,0,0,0-19-28A22.18,22.18,0,0,0,106.25,6.88a20.62,20.62,0,0,0-1.59,1.78,20.62,20.62,0,0,0-1.59-1.78A22.18,22.18,0,0,0,65.53,18.76a22.17,22.17,0,0,0-19,28,22.2,22.2,0,0,0,0,42.1,22.18,22.18,0,0,0,19,28,22.19,22.19,0,0,0,37.54,11.88c.57-.57,1.09-1.17,1.59-1.78.5.61,1,1.21,1.59,1.78a22.18,22.18,0,0,0,37.54-11.88,22.18,22.18,0,0,0,19-28,22,22,0,0,0,8.65-5.36A22.22,22.22,0,0,0,171.47,52.1ZM94.55,123.16a12.37,12.37,0,0,1-19.5-10.91l.21-3.14a2.33,2.33,0,0,0-2.63-2.46l-3.12.41a12.27,12.27,0,0,1-11.12-4.3,12.7,12.7,0,0,1-.47-15.3l2.33-3.39a2.51,2.51,0,0,0-2.08-3.93l-4.58,0h-.05A11.85,11.85,0,0,1,48,78.89a12.44,12.44,0,0,1,0-22.21,12,12,0,0,1,5.52-1.26h4.15l.14,0H70.75A17.3,17.3,0,0,0,80.2,66.24l4-8.94a7.46,7.46,0,0,1,.17-13.67l-3.83-9a17.24,17.24,0,0,0-9.83,11H56.58a12.48,12.48,0,0,1,1.81-12.72,12.27,12.27,0,0,1,11.12-4.29l2.2.29a3.09,3.09,0,0,0,3.49-3.26l-.15-2.22a12.36,12.36,0,0,1,22-8.58A13,13,0,0,1,99.75,23v32c0,.13,0,.25,0,.38h0V80.13h0a9.31,9.31,0,1,1-18.61,0H71.3A19.09,19.09,0,0,0,99.75,96.81v16.26A12.36,12.36,0,0,1,94.55,123.16Zm66.76-44.27a11.85,11.85,0,0,1-5.53,1.27H138.55a17.23,17.23,0,0,0-9.83-11l-3.83,9a7.46,7.46,0,0,1,.17,13.67l4,9A17.34,17.34,0,0,0,138.55,90H152.7a12.46,12.46,0,0,1-1.77,12.8,12.27,12.27,0,0,1-11.12,4.3l-3.12-.41a2.33,2.33,0,0,0-2.63,2.46l.21,3.14a12.36,12.36,0,1,1-24.7.82v-58a9.3,9.3,0,0,1,18.59.38H138a19.1,19.1,0,0,0-28.41-16.71V23a13,13,0,0,1,2.73-8.22,12.36,12.36,0,0,1,22,8.58l-.15,2.22a3.09,3.09,0,0,0,3.49,3.26l2.2-.29a12.27,12.27,0,0,1,11.12,4.29,12.71,12.71,0,0,1,.5,15.26l-2.06,3a2.73,2.73,0,0,0,2.26,4.26h4.15a12,12,0,0,1,5.52,1.26A12.44,12.44,0,0,1,161.31,78.89Z"/><circle cx="30.75" cy="172.1" r="9.35"/></svg>