<svg xmlns="http://www.w3.org/2000/svg" viewBox="0 0 200 200"><title>teamwork</title><path d="M145.11,58.73l7.33-5.29A65.44,65.44,0,0,0,130.65,34.3l-4.3,8A56.34,56.34,0,0,1,145.11,58.73Z"/><path d="M126.35,140.38l4.3,8a65.3,65.3,0,0,0,22.19-19.71l-7.38-5.21A56.4,56.4,0,0,1,126.35,140.38Z"/><path d="M54.3,123.41l-7.39,5.21a65.23,65.23,0,0,0,22,19.61l4.32-7.94A56.1,56.1,0,0,1,54.3,123.41Z"/><path d="M47.31,53.44l7.34,5.29A56.24,56.24,0,0,1,73.24,42.34L68.92,34.4A65.4,65.4,0,0,0,47.31,53.44Z"/><path d="M120.6,23.69c.06-.52.13-1,.15-1.55a20.9,20.9,0,0,0-41.57-3.76,21.17,21.17,0,0,0,0,5.33A5.2,5.2,0,0,0,80.05,34a4.92,4.92,0,0,0,.86-.09c.25,1.38.49,2.77.74,4.14l.2,1.08a12.93,12.93,0,0,0,3.62,7l4.38,4.36a13.82,13.82,0,0,0,9.81,4h.86a14,14,0,0,0,10.06-4.31l4-4.22A12.94,12.94,0,0,0,118,39.27l.18-1c.25-1.42.51-2.87.76-4.32a5,5,0,0,0,1,.1,5.19,5.19,0,0,0,.7-10.34Zm-10.86-2a9.32,9.32,0,0,1-.1,1.05c-.7,4.5-1.51,9.1-2.3,13.54l-.2,1.08a1.93,1.93,0,0,1-.5,1l-4,4.22a2.89,2.89,0,0,1-2.09.9h-.86a2.85,2.85,0,0,1-2-.84l-4.38-4.37a2,2,0,0,1-.56-1.11l-.2-1.12c-.51-2.77-1-5.53-1.5-8.3-.1-.57-.21-1.15-.32-1.73A20.13,20.13,0,0,1,90.08,20a10.08,10.08,0,0,1,9.81-8.47,10.2,10.2,0,0,1,2.53.32,9.91,9.91,0,0,1,7.32,9.9Z"/><path d="M120.6,151.2c.06-.52.13-1,.15-1.55a20.89,20.89,0,1,0-41.61,1.57,5.2,5.2,0,0,0,.91,10.32,6.11,6.11,0,0,0,.86-.08c.25,1.38.49,2.76.74,4.14l.2,1.08a12.87,12.87,0,0,0,3.62,7L89.85,178a13.79,13.79,0,0,0,9.81,4.06h.86a14,14,0,0,0,10.06-4.31l4-4.23a12.87,12.87,0,0,0,3.39-6.74l.18-1c.25-1.42.51-2.88.76-4.32a6,6,0,0,0,1,.09,5.19,5.19,0,0,0,.7-10.34Zm-10.86-2a9.32,9.32,0,0,1-.1,1c-.7,4.51-1.51,9.1-2.3,13.55l-.2,1.08a1.94,1.94,0,0,1-.5,1l-4,4.23a2.88,2.88,0,0,1-2.09.89h-.86a2.85,2.85,0,0,1-2-.84l-4.38-4.36a2,2,0,0,1-.56-1.12l-.2-1.12c-.51-2.76-1-5.53-1.5-8.29-.1-.58-.21-1.15-.32-1.73a20.13,20.13,0,0,1-.59-6.11A10.08,10.08,0,0,1,99.89,139a9.76,9.76,0,0,1,2.53.33,9.9,9.9,0,0,1,7.32,9.9Z"/><path d="M173.84,87.49c.06-.51.13-1,.15-1.53h0a21,21,0,0,0-15.52-21,21.31,21.31,0,0,0-5.34-.69,20.73,20.73,0,0,0-20.75,23.24,5.2,5.2,0,0,0,.91,10.32,6.11,6.11,0,0,0,.86-.08c.25,1.38.49,2.76.75,4.14l.19,1.08a12.94,12.94,0,0,0,3.62,7l4.38,4.36a13.81,13.81,0,0,0,9.81,4.06h.86a14,14,0,0,0,10.07-4.31l4-4.23a12.76,12.76,0,0,0,3.39-6.74l.18-1c.25-1.43.51-2.88.76-4.32a6,6,0,0,0,1,.09,5.19,5.19,0,0,0,.7-10.34Zm-11-.91c-.69,4.51-1.51,9.1-2.3,13.54l-.2,1.09a1.86,1.86,0,0,1-.5,1l-4,4.23a2.88,2.88,0,0,1-2.09.89h-.86a2.85,2.85,0,0,1-2-.84l-4.38-4.36a2,2,0,0,1-.55-1.12l-.21-1.12q-.76-4.14-1.49-8.3c-.11-.57-.21-1.14-.33-1.71a20.26,20.26,0,0,1-.59-6.13,10.08,10.08,0,0,1,9.81-8.47,9.76,9.76,0,0,1,2.53.33,9.89,9.89,0,0,1,7.32,9.9A9.5,9.5,0,0,1,162.88,86.58Z"/><path d="M57.15,114.05l4-4.23a12.8,12.8,0,0,0,3.39-6.74l.18-1c.26-1.43.51-2.88.76-4.32a6,6,0,0,0,1,.09,5.19,5.19,0,0,0,.7-10.34c.06-.51.13-1,.15-1.53h0A21,21,0,0,0,51.79,65a21.31,21.31,0,0,0-5.34-.69A20.73,20.73,0,0,0,25.7,87.51a5.2,5.2,0,0,0,.91,10.32,6.11,6.11,0,0,0,.86-.08c.25,1.38.49,2.76.75,4.14l.19,1.08a12.94,12.94,0,0,0,3.62,7l4.38,4.36a13.81,13.81,0,0,0,9.81,4.06h.86A14,14,0,0,0,57.15,114.05Zm-13-7.55-4.38-4.36a2,2,0,0,1-.55-1.12l-.21-1.11q-.77-4.16-1.49-8.31c-.11-.57-.21-1.14-.33-1.71a20.26,20.26,0,0,1-.59-6.13,10.08,10.08,0,0,1,9.81-8.47,9.76,9.76,0,0,1,2.53.33,9.88,9.88,0,0,1,7.32,9.9,9.5,9.5,0,0,1-.1,1.06c-.69,4.51-1.51,9.1-2.3,13.54l-.2,1.09a1.86,1.86,0,0,1-.5,1l-4,4.23a2.88,2.88,0,0,1-2.09.89h-.86A2.85,2.85,0,0,1,44.19,106.5Z"/></svg>