<svg xmlns="http://www.w3.org/2000/svg" xmlns:xlink="http://www.w3.org/1999/xlink" viewBox="0 0 396 612"><defs><style>.a{fill:none;}.b{clip-path:url(#a);}.c{fill:#ffcd0f;}.d{fill:#ffb90f;}.e{fill:url(#b);}</style><clipPath id="a"><rect class="a" width="214.99" height="214.99"/></clipPath><pattern id="b" width="214.99" height="214.99" patternTransform="translate(1099.35 293.92)" patternUnits="userSpaceOnUse" viewBox="0 0 214.99 214.99"><rect class="a" width="214.99" height="214.99"/><g class="b"><path class="c" d="M91.58,4.68A4,4,0,0,1,90.67,0h11.55L97.46,4.76a4,4,0,0,1-5.88-.08"/><path class="c" d="M46.33,50.65a4,4,0,0,1,.06,5.86L30.17,72.72h0L4.55,98.34a12.51,12.51,0,0,0,0,17.86,12.51,12.51,0,0,0,17.86,0l9.74-9.74h0L48.36,90.25a4.2,4.2,0,0,1,5.94,5.94L37.84,112.64l0,0L15,135.61a12.63,12.63,0,1,0,17.86,17.86l17.33-17.33.06.06,3-3a4.2,4.2,0,0,1,5.93,5.94L35.88,162.4h0L19.42,178.84A12.63,12.63,0,0,0,37.27,196.7l25.62-25.62h0l49.58-49.59a4.2,4.2,0,0,1,5.93,5.94L102,143.88v0L81.61,164.25a12.63,12.63,0,1,0,17.86,17.86l11.78-11.78h0l8.88-8.87a4.19,4.19,0,0,1,5.93,5.93l-14.77,14.77,0,0L85.55,207.84A12.6,12.6,0,0,0,81.93,215H0V91L40.45,50.57a4,4,0,0,1,5.88.08"/><path class="c" d="M198.69,47.74,186.41,60h0l-8,8a4.44,4.44,0,0,1-6.27.31l-.16-.18c-1.57-1.72-2.49-4.45-.06-7l20.51-20.46L208.9,24.27a12.49,12.49,0,0,0,0-17.86,12.49,12.49,0,0,0-17.86,0L176.61,20.84h0L164.83,32.62a4,4,0,0,1-5.88-.08,4,4,0,0,1-.06-5.86L179.31,6.27h0L185.59,0H215V46.4a12.47,12.47,0,0,0-16.3,1.34"/><path class="c" d="M133.82,16,108.21,41.6a4.2,4.2,0,0,1-5.94-5.94L120,17.94h0L136.46,1.48A13.71,13.71,0,0,0,137.74,0h12.14l-16,16Z"/><path class="c" d="M185.64,102.43a4,4,0,0,1-.06-5.86L202,80.12h0l13-13V79l-23.47,23.48a4,4,0,0,1-5.88-.08"/><path class="c" d="M189.74,193a4,4,0,0,1,.06,5.85L173.65,215H161.78l22.09-22.09a4,4,0,0,1,5.87.08"/><path class="c" d="M173.63,0l-20.71,20.7a12.63,12.63,0,0,0,17.86,17.86l10-10h0L197,12.36a4,4,0,0,1,5.87.08,4,4,0,0,1,.06,5.86L186.48,34.75l-21.11,21c-5,5-4.24,13.36.59,18.37l.17.18a12.49,12.49,0,0,0,17.86,0l11.78-11.78h0l8.88-8.87a4.2,4.2,0,0,1,5.94,5.93L194.12,76.08h0L179.61,90.6a12.63,12.63,0,0,0,17.86,17.86l8.34-8.35.05,0L215,91V215h-29.4l10.18-10.19A12.62,12.62,0,0,0,177.92,187l-28,28H137.73a12.63,12.63,0,0,0-19.13-16.38L109.24,208h0l-7,7H90.67a4.52,4.52,0,0,1,.85-1.18l24-24,0,0L132,173.35a12.62,12.62,0,0,0-17.85-17.85l-12.28,12.27h0l-8.38,8.38a4.2,4.2,0,0,1-5.94-5.94l20.71-20.7,0,0,16.1-16.1a12.63,12.63,0,0,0-17.85-17.86L56.94,165.12h0L31.32,190.75a4,4,0,0,1-5.87-.08,4,4,0,0,1-.06-5.86l16.45-16.45h0L65.07,145.1a12.63,12.63,0,1,0-17.85-17.86l-2.35,2.35-.07-.06-18,18a4,4,0,0,1-5.86-.06,4,4,0,0,1-.08-5.88L46.52,116l0,0,13.77-13.77A12.63,12.63,0,1,0,42.41,84.3l-8,8,0,0-18,18a4,4,0,0,1-5.86-.06,4,4,0,0,1-.08-5.88L35.88,78.91l0,0L52.36,62.48A12.63,12.63,0,0,0,34.5,44.62L2.19,76.93l0,0L0,79V67.16l1.56-1.57a12.48,12.48,0,0,0,0-17.85A13,13,0,0,0,0,46.4V0H81.93a12.51,12.51,0,0,0,3.62,10.71,12.49,12.49,0,0,0,17.86,0L114.12,0H126L114.74,11.26h0L96.3,29.69a12.63,12.63,0,0,0,17.86,17.86l20.09-20.1,0,0L161.78,0h11.85Z"/><path class="c" d="M114.9,214.21l9.65-9.65a4.2,4.2,0,0,1,5.94,5.94L126,215H114.12l.78-.78Z"/><path class="d" d="M179.31,6.27,158.89,26.68a4,4,0,0,0,.06,5.86,4,4,0,0,0,5.88.08l11.78-11.78h0L191.05,6.41a12.48,12.48,0,0,1,17.85,0,12.49,12.49,0,0,1,0,17.86L192.45,40.72,171.94,61.18c-2.43,2.51-1.52,5.24.06,7l.16.18a4.45,4.45,0,0,0,6.27-.31l8-8h0l12.28-12.27A12.47,12.47,0,0,1,215,46.4V67.15l-13,13h0L185.58,96.57a4.2,4.2,0,0,0,5.94,5.94L215,79V91l-9.13,9.13-.05,0-8.34,8.35A12.63,12.63,0,0,1,179.61,90.6l14.51-14.52h0l16.46-16.46a4.2,4.2,0,0,0-5.94-5.93l-8.88,8.87h0L184,74.35a12.49,12.49,0,0,1-17.86,0l-.17-.18c-4.83-5-5.54-13.42-.59-18.36l21.11-21.06L202.93,18.3a4,4,0,0,0-.06-5.86,4,4,0,0,0-5.87-.08L180.79,28.57h0l-10,10a12.63,12.63,0,0,1-17.86-17.86L173.63,0h0l0,0h11.94l-6.27,6.27Z"/><path class="d" d="M85.55,10.71A12.51,12.51,0,0,1,81.93,0h8.74a4,4,0,0,0,.91,4.68,4,4,0,0,0,5.88.08L102.22,0h11.9L103.41,10.71a12.49,12.49,0,0,1-17.86,0"/><path class="d" d="M134.25,27.45l-20.09,20.1A12.63,12.63,0,0,1,96.3,29.69l18.44-18.44h0L126,0h11.74a13.71,13.71,0,0,1-1.28,1.48L120,17.94h0L102.27,35.66a4.2,4.2,0,0,0,5.94,5.94L133.82,16l0,0,16-16h11.9L134.29,27.49Z"/><path class="d" d="M1.56,65.59,0,67.16V46.4a13,13,0,0,1,1.56,1.34,12.48,12.48,0,0,1,0,17.85"/><path class="d" d="M2.19,76.93,34.5,44.62A12.63,12.63,0,0,1,52.36,62.48L35.9,78.94l0,0L10.5,104.29a4,4,0,0,0,.08,5.88,4,4,0,0,0,5.86.06l18-18,0,0,8-8a12.63,12.63,0,1,1,17.86,17.86L46.5,115.93l0,0L20.9,141.56a4,4,0,0,0,.08,5.88,4,4,0,0,0,5.86.06l18-18,.06.06,2.35-2.35A12.63,12.63,0,1,1,65.07,145.1L41.83,168.35h0L25.39,184.81a4,4,0,0,0,.06,5.86,4,4,0,0,0,5.87.08l25.62-25.62h0l49.58-49.58a12.63,12.63,0,0,1,17.85,17.86l-16.1,16.1,0,0-20.71,20.7a4.2,4.2,0,0,0,5.94,5.94l8.38-8.38h0l12.28-12.27A12.62,12.62,0,0,1,132,173.35l-16.45,16.46,0,0-24,24a4.52,4.52,0,0,0-.85,1.18H81.93a12.6,12.6,0,0,1,3.62-7.15l25.71-25.71,0,0,14.77-14.77a4.19,4.19,0,0,0-5.93-5.93l-8.88,8.87h0L99.47,182.11a12.63,12.63,0,1,1-17.86-17.86L102,143.9v0l16.45-16.45a4.19,4.19,0,0,0-5.93-5.93L62.89,171.08h0L37.27,196.7a12.63,12.63,0,0,1-17.85-17.86l16.45-16.45h0l23.24-23.25a4.2,4.2,0,0,0-5.93-5.94l-3,3-.06-.06L32.81,153.47A12.63,12.63,0,1,1,15,135.61l22.93-22.93,0,0L54.3,96.19a4.2,4.2,0,0,0-5.94-5.94L32.15,106.46h0l-9.74,9.74a12.51,12.51,0,0,1-17.86,0,12.51,12.51,0,0,1,0-17.86L30.17,72.72,46.39,56.51a4.2,4.2,0,0,0-5.94-5.94L0,91V79l2.15-2.15Z"/><path class="d" d="M195.77,187a12.48,12.48,0,0,1,0,17.85L185.59,215H173.65l16.15-16.16a4.19,4.19,0,0,0-5.93-5.93L161.78,215h-11.9l28-28a12.48,12.48,0,0,1,17.85,0"/><path class="d" d="M109.24,208l9.36-9.36A12.63,12.63,0,0,1,137.73,215H126l4.49-4.49a4.2,4.2,0,0,0-5.94-5.94l-9.65,9.65h0l-.78.78h-11.9l7-7Z"/></g></pattern></defs><title>designInnovation-pattern</title><rect class="e" width="396" height="612"/></svg>