<svg xmlns="http://www.w3.org/2000/svg" xmlns:xlink="http://www.w3.org/1999/xlink" viewBox="0 0 1920 1080"><defs><style>.a{fill:none;}.b{fill:#f04141;}.c{fill:#e52505;}.d{fill:url(#a);}</style><pattern id="a" width="429.97" height="429.97" patternUnits="userSpaceOnUse" viewBox="0 0 429.97 429.97"><rect class="a" width="429.97" height="429.97"/><path class="b" d="M0,228.6V0H8V220.75c0,4.62-3.3,7.85-8,7.85"/><path class="b" d="M327.68,49.72V96.48c0,4.62-3.3,7.85-8,7.85s-8.07-3.23-8.07-7.85V54.14l.06-4.43V40.42c0-4.63,3.29-7.86,8-7.86s8.08,3.23,8.08,7.86v4.87Z"/><path class="b" d="M254,98.19V208.35c0,4.63-3.29,7.86-8,7.86s-8.07-3.23-8.07-7.86V102.62l.06-4.43v-9.3c0-4.62,3.3-7.85,8-7.85S254,84.27,254,88.9v4.87Z"/><path class="b" d="M361,244.39v9.29a7.6,7.6,0,0,1-8,7.86c-4.76,0-8.08-3.24-8.08-7.86v-3.75l.05-4.43v-9.29c0-4.63,3.3-7.85,8-7.85s8.07,3.22,8.07,7.85V240Z"/><path class="b" d="M164.6,165.78v46.76c0,4.62-3.3,7.85-8,7.85s-8.07-3.23-8.07-7.85V170.2l.06-4.43v-9.29c0-4.63,3.3-7.86,8-7.86s8.07,3.23,8.07,7.86v4.87Z"/><path class="b" d="M8.07,351.24V430H0V343.39H0c4.75,0,8.07,3.23,8.07,7.85"/><path class="b" d="M311.66,351.33V338c0-4.62,3.29-7.85,8-7.85s8.08,3.23,8.08,7.86v8.89l-.06,4.42v25.1c0,4.62-3.3,7.85-8,7.85s-8.07-3.23-8.07-7.85V355.75Z"/><path class="b" d="M209.94,11.86c-4.76,0-8.07-3.23-8.07-7.86V0H218V4c0,4.63-3.29,7.86-8,7.86"/><path class="b" d="M107,86.12c-4.75,0-8.07-3.23-8.07-7.85V0h16.08V78.27c0,4.62-3.3,7.85-8,7.85"/><path class="b" d="M90.86,300.05v22.71c0,4.62-3.29,7.85-8,7.85s-8.06-3.23-8.06-7.86V304.47l.06-4.43v-9.3c0-4.62,3.3-7.85,8-7.85s8.07,3.23,8.07,7.86v4.87Z"/><path class="b" d="M430,228.61c-4.75,0-8.07-3.24-8.07-7.86V0H430Z"/><path class="b" d="M429.41,343.39l.56,0V430H421.4V351.24c0-4.62,3.3-7.85,8-7.85"/><path class="b" d="M405.78,220.75V0H234.13V4a24.2,24.2,0,1,1-48.39,0V0H131.23V78.27a24.19,24.19,0,1,1-48.38,0V0H24.19V220.75A23.93,23.93,0,0,1,0,244.94v82.11H0a23.93,23.93,0,0,1,24.19,24.19V430H82.85v-2.11a24.19,24.19,0,1,1,48.38,0V430h54.51V300.55a24.2,24.2,0,1,1,48.39,0V430H405.22V351.24a23.93,23.93,0,0,1,24.19-24.19H430V244.94a23.93,23.93,0,0,1-24.19-24.19M107,322.75a24.2,24.2,0,1,1-48.39,0v-32a24.2,24.2,0,1,1,48.39,0Zm73.74-110.21a24.19,24.19,0,0,1-48.38,0V156.48a24.19,24.19,0,1,1,48.38,0ZM295.48,338a24.2,24.2,0,1,1,48.39,0v38.41a24.2,24.2,0,0,1-48.39,0ZM270.16,208.35a24.2,24.2,0,1,1-48.39,0V88.9a24.2,24.2,0,1,1,48.39,0ZM343.87,96.48a24.2,24.2,0,0,1-48.39,0V40.42a24.2,24.2,0,1,1,48.39,0Zm33.32,157.2a24.2,24.2,0,1,1-48.39,0V236.21a24.2,24.2,0,1,1,48.39,0Z"/><path class="b" d="M209.94,292.69c4.75,0,8.07,3.23,8.07,7.86V430H201.92V300.55c0-4.63,3.3-7.86,8-7.86"/><path class="b" d="M107,420c4.75,0,8.07,3.23,8.07,7.86V430H99v-2.11c0-4.63,3.3-7.86,8-7.86"/><path class="c" d="M430,228.61h0V245a23.94,23.94,0,0,1-24.19-24.2V0H421.9V220.75c0,4.62,3.32,7.86,8.07,7.86"/><path class="c" d="M0,245V228.61c4.72,0,8-3.24,8-7.86V0H24.19V220.75A23.93,23.93,0,0,1,0,245"/><path class="c" d="M107,102.46A23.93,23.93,0,0,1,82.85,78.27V0H99V78.27c0,4.62,3.32,7.85,8.07,7.85s8-3.23,8-7.85V0h16.18V78.27A23.93,23.93,0,0,1,107,102.46"/><path class="c" d="M107,403.66a23.93,23.93,0,0,1,24.19,24.2V430H115.11v-2.11c0-4.63-3.32-7.86-8.07-7.86s-8,3.23-8,7.86V430H82.85v-2.11A23.93,23.93,0,0,1,107,403.66"/><path class="c" d="M429.41,327.05H430v16.35l-.56,0c-4.72,0-8,3.23-8,7.85V430H405.22V351.24a23.93,23.93,0,0,1,24.19-24.19"/><path class="c" d="M24.19,351.24V430H8.07V351.24c0-4.62-3.32-7.85-8.07-7.85H0V327.05H0a23.93,23.93,0,0,1,24.19,24.19"/><path class="c" d="M107,322.75v-32a24.2,24.2,0,1,0-48.39,0v32a24.2,24.2,0,1,0,48.39,0m-16.12-32v4.87l0,4.42v22.72c0,4.62-3.29,7.85-8,7.85s-8.08-3.23-8.08-7.86V304.47l.06-4.43v-9.3c0-4.62,3.3-7.85,8-7.85s8.07,3.23,8.07,7.86"/><path class="c" d="M180.79,212.54V156.48a24.2,24.2,0,1,0-48.39,0v56.06a24.2,24.2,0,0,0,48.39,0m-16.13-56.06v4.87l-.06,4.43v46.76c0,4.62-3.3,7.85-8,7.85s-8.07-3.23-8.07-7.85V170.2l.06-4.43v-9.29c0-4.63,3.3-7.86,8-7.86s8.07,3.23,8.07,7.86"/><path class="c" d="M343.87,96.48V40.42a24.2,24.2,0,1,0-48.39,0V96.48a24.2,24.2,0,0,0,48.39,0M327.74,40.42v4.87l-.06,4.43V96.48c0,4.62-3.3,7.85-8,7.85s-8.07-3.23-8.07-7.85V54.14l.06-4.43V40.42c0-4.63,3.29-7.86,8-7.86s8.07,3.23,8.07,7.86"/><path class="c" d="M270.16,208.35V88.9a24.2,24.2,0,1,0-48.39,0V208.35a24.2,24.2,0,1,0,48.39,0M254,88.9v4.87L254,98.19V208.35c0,4.63-3.29,7.86-8,7.86s-8.07-3.23-8.07-7.86V102.62l.06-4.43v-9.3c0-4.62,3.3-7.85,8-7.85S254,84.27,254,88.9"/><path class="c" d="M209.94,276.35a23.94,23.94,0,0,1,24.19,24.2V430H218V300.55c0-4.63-3.32-7.86-8.07-7.86s-8,3.23-8,7.86V430H185.74V300.55a23.94,23.94,0,0,1,24.2-24.2"/><path class="c" d="M209.94,28.2A23.94,23.94,0,0,1,185.74,4V0h16.13V4c0,4.63,3.31,7.86,8.07,7.86s8-3.23,8-7.86V0h16.18V4a23.94,23.94,0,0,1-24.19,24.2"/><path class="c" d="M377.19,253.68V236.21a24.2,24.2,0,1,0-48.39,0v17.47a24.2,24.2,0,0,0,48.39,0m-16.12-17.47V240l-.05,4.43v9.29c0,4.63-3.29,7.86-8,7.86s-8.08-3.23-8.08-7.86v-3.75l.05-4.43v-9.29c0-4.63,3.3-7.86,8-7.86s8.07,3.23,8.07,7.86"/><path class="c" d="M295.48,338v38.41a24.2,24.2,0,0,0,48.39,0V338a24.2,24.2,0,1,0-48.39,0m16.12,38.41V355.75l.06-4.42V338c0-4.62,3.29-7.85,8-7.85s8.07,3.23,8.07,7.86v8.89l-.06,4.42v25.1c0,4.62-3.3,7.85-8,7.85s-8.07-3.23-8.07-7.85"/><path class="b" d="M-.56,343.39l.56,0V430H-8.58V351.24c0-4.62,3.3-7.85,8-7.85"/><path class="c" d="M-.56,327.05H0v16.35l-.56,0c-4.72,0-8,3.23-8,7.85V430H-24.75V351.24A23.93,23.93,0,0,1-.56,327.05"/></pattern></defs><title>selfwork-large</title><rect class="d" width="1920" height="1080"/></svg>