<svg xmlns="http://www.w3.org/2000/svg" xmlns:xlink="http://www.w3.org/1999/xlink" viewBox="0 0 396 612"><defs><style>.a{fill:none;}.b{fill:#149687;}.c{fill:#177a6c;}.d{fill:url(#a);}</style><pattern id="a" width="429.97" height="429.97" patternUnits="userSpaceOnUse" viewBox="0 0 429.97 429.97"><rect class="a" width="429.97" height="429.97"/><path class="b" d="M430,430V250.9H282.9V236.43H430V0H228.1V7.24H172.94V0H0V151.17H63.59v14.47H0V430H172.94v-7.23H228.1V430Zm-238.08-48.9H302.56v14.47H191.89ZM11.23,366.6H109v14.47H11.23ZM109,337.49H154.3V352H109ZM57,299H78.71V313.5H57ZM211,272H32V257.49H211Zm-16.17-59.89h37.29v14.47H194.86Zm-59.21,0h37.29v14.47H135.65ZM70.8,111.79h21v14.48h-21Zm78.13-66.11h-99V31.21h99Zm35.6,42.13H103.08V73.33h81.45ZM291.86,77.07h-31V62.6h31Zm64.5-44.41h-44.1V18.18h44.1ZM314,158.61h43.21v14.47H314Zm-165-46.82H402.56v14.48H148.93ZM273,194.14H248.58V179.67H273ZM345.28,313.5H229.88V299h115.4Zm32.25,53.1H357.16V352.12h20.37Z"/><rect class="c" x="357.16" y="352.12" width="20.37" height="14.47"/><rect class="c" x="11.23" y="366.6" width="97.72" height="14.47"/><rect class="c" x="191.89" y="381.07" width="110.67" height="14.47"/><rect class="c" x="108.95" y="337.49" width="45.35" height="14.47"/><rect class="c" x="57.04" y="299.03" width="21.67" height="14.47"/><rect class="c" x="229.88" y="299.03" width="115.4" height="14.47"/><rect class="c" x="172.94" width="55.16" height="7.24"/><rect class="c" x="172.94" y="422.74" width="55.16" height="7.24"/><rect class="c" x="282.9" y="236.43" width="147.08" height="14.47"/><rect class="c" x="31.95" y="257.49" width="179.07" height="14.47"/><rect class="c" x="194.86" y="212.07" width="37.29" height="14.47"/><rect class="c" x="135.65" y="212.07" width="37.29" height="14.47"/><rect class="c" x="148.93" y="111.79" width="253.63" height="14.47"/><rect class="c" x="103.08" y="73.33" width="81.46" height="14.47"/><rect class="c" x="49.89" y="31.21" width="99.04" height="14.47"/><rect class="c" x="312.26" y="18.18" width="44.11" height="14.47"/><rect class="c" x="260.84" y="62.6" width="31.02" height="14.47"/><rect class="c" x="70.8" y="111.79" width="21.01" height="14.47"/><rect class="c" y="151.17" width="63.59" height="14.47"/><rect class="c" x="313.95" y="158.61" width="43.21" height="14.47"/><rect class="c" x="248.58" y="179.67" width="24.41" height="14.47"/></pattern></defs><title>smarterLearning-pattern</title><rect class="d" width="396" height="612"/></svg>