<svg xmlns="http://www.w3.org/2000/svg" xmlns:xlink="http://www.w3.org/1999/xlink" viewBox="0 0 399.82 612"><defs><style>.a{fill:none;}.b{fill:#a5c83c;}.c{fill:#8daa26;}.d{fill:url(#a);}</style><pattern id="a" width="429.97" height="429.97" patternUnits="userSpaceOnUse" viewBox="0 0 429.97 429.97"><rect class="a" width="429.97" height="429.97"/><path class="b" d="M430,174.07V0H389.18l29.25,29.25L409.73,38l-38-38H136.53l19.41,19.41-8.7,8.7L119.12,0H0V174.07l11,11-8.7,8.7L0,191.47V340.06l44.78,44.78-8.7,8.7L0,357.47V430H119.12L99.71,410.56l8.7-8.7L136.53,430H371.77l-29.26-29.25,8.71-8.71,38,38H430v-72.5l-44.78-44.78,8.7-8.71L430,340.06V191.47l-11-11,8.7-8.7ZM319.34,244.89l8.71-8.71L352.83,261l-8.71,8.71Zm26.21-26.21-8.7,8.7-59-59,8.71-8.7Zm-21.37-67.27L290.1,117.33l9.11-9.11,34.08,34.08ZM288.4,242.79l-8.7,8.7-11.84-11.83,8.7-8.71Zm38.61,106-97.84-97.84,8.71-8.7,97.84,97.84Zm-36.14,18.48,8.7-8.7L320,378.91l-8.71,8.71Zm-32.35-32.35,8.7-8.7,20.38,20.37-8.71,8.71Zm-53,39.63,8.7-8.7L258.41,410l-8.7,8.71Zm3-43.2-43.21-43.21,8.7-8.71,43.22,43.22ZM183,362.53l-8.71,8.71-11.48-11.49,8.7-8.7Zm-44.3,19.25,8.71-8.7,29.7,29.7-8.7,8.7ZM75.61,168.83l8.7-8.7,71,71-8.7,8.7Zm18.84,56-8.71,8.71L65.37,213.22l8.7-8.71Zm-6,84.7,8.7-8.71,34.23,34.24-8.7,8.7ZM61.07,374.29l8.71-8.7L90.15,386l-8.7,8.71ZM49.4,317.84l8.71-8.71,11.48,11.48-8.71,8.71ZM11.2,237.28l8.71-8.7,44.5,44.51-8.7,8.7Zm42.19-36L33,180.87l8.7-8.71L62.1,192.54ZM13.93,115.08l14.71,14.71-8.7,8.7L5.23,123.78Zm18.28-57,63,63.05-8.7,8.71-63-63ZM57.64,19.65l-8.7,8.7L37.81,17.22l8.7-8.7ZM103,83.13l-8.71,8.7L74,71.46l8.7-8.71Zm81.42,80.93-8.71,8.7-46.26-46.25,8.71-8.71Zm3.83-107.9-8.71,8.7L159.21,44.49l8.7-8.71Zm0,46.77-8.7,8.71L156.52,88.55l8.7-8.7Zm1.39,112.61L181,224.25l-11.84-11.84,8.71-8.7Zm12.27-69,59,59-8.71,8.7-59-59Zm20.6-65.23,8.71-8.7,22.59,22.59-8.71,8.7Zm79.83-15.66-8.71,8.71-63-63,8.7-8.7Zm86.23,25.81-8.71,8.7L322.8,43.07l8.7-8.7Zm7,89.33-9.11,9.11-17.12-17.13,9.11-9.1Zm16.61,74.61-8.7,8.7L380.47,241l8.71-8.7Z"/><polygon class="c" points="336.85 227.39 277.83 168.37 286.54 159.67 345.55 218.68 336.85 227.39"/><polygon class="c" points="380.47 241.04 389.18 232.34 412.26 255.42 403.56 264.12 380.47 241.04"/><polygon class="c" points="328.05 236.18 352.83 260.96 344.12 269.66 319.35 244.89 328.05 236.18"/><polygon class="c" points="267.86 239.66 276.56 230.95 288.4 242.79 279.7 251.49 267.86 239.66"/><polygon class="c" points="409.73 37.96 371.77 0 389.18 0 418.43 29.25 409.73 37.96"/><polygon class="c" points="351.22 392.01 389.18 429.97 371.77 429.97 342.52 400.72 351.22 392.01"/><polygon class="c" points="237.88 242.22 335.71 340.06 327.01 348.76 229.17 250.93 237.88 242.22"/><polygon class="c" points="319.94 378.91 311.24 387.62 290.87 367.24 299.57 358.54 319.94 378.91"/><polygon class="c" points="287.6 346.56 278.89 355.27 258.52 334.89 267.22 326.19 287.6 346.56"/><polygon class="c" points="369.42 172.79 378.53 163.69 395.65 180.81 386.54 189.92 369.42 172.79"/><polygon class="c" points="299.2 108.22 333.29 142.3 324.18 151.41 290.1 117.33 299.2 108.22"/><polygon class="c" points="258.41 410.04 249.71 418.75 205.48 374.52 214.18 365.82 258.41 410.04"/><polygon class="c" points="177.09 402.78 168.39 411.48 138.68 381.78 147.39 373.08 177.09 402.78"/><polygon class="c" points="162.79 359.75 171.5 351.05 182.98 362.53 174.27 371.24 162.79 359.75"/><polygon class="c" points="165.29 288.11 173.99 279.4 217.21 322.62 208.5 331.32 165.29 288.11"/><polygon class="c" points="322.8 43.07 331.5 34.37 388.62 91.48 379.91 100.19 322.8 43.07"/><polygon class="c" points="37.81 17.22 46.51 8.52 57.64 19.65 48.94 28.35 37.81 17.22"/><polygon class="c" points="252.26 214.27 193.25 155.26 201.96 146.56 260.97 205.57 252.26 214.27"/><polygon class="c" points="156.52 88.55 165.22 79.85 188.3 102.93 179.6 111.64 156.52 88.55"/><polygon class="c" points="175.75 172.76 129.5 126.51 138.2 117.81 184.46 164.06 175.75 172.76"/><polygon class="c" points="169.14 212.41 177.85 203.71 189.69 215.54 180.98 224.25 169.14 212.41"/><polygon class="c" points="86.55 129.81 23.5 66.77 32.21 58.06 95.25 121.11 86.55 129.81"/><polygon class="c" points="19.94 138.49 5.23 123.78 13.93 115.08 28.64 129.79 19.94 138.49"/><polygon class="c" points="155.27 231.09 146.57 239.79 75.61 168.83 84.31 160.13 155.27 231.09"/><polygon class="c" points="41.73 172.16 62.1 192.54 53.39 201.24 33.02 180.87 41.73 172.16"/><polygon class="c" points="73.96 71.46 82.66 62.76 103.03 83.13 94.33 91.83 73.96 71.46"/><polygon class="c" points="65.37 213.22 74.07 204.51 94.45 224.89 85.74 233.59 65.37 213.22"/><polygon class="c" points="90.15 385.96 81.44 394.67 61.07 374.29 69.78 365.59 90.15 385.96"/><polygon class="c" points="230.64 11.33 239.34 2.63 302.39 65.68 293.68 74.38 230.64 11.33"/><polygon class="c" points="159.21 44.49 167.91 35.78 188.29 56.16 179.58 64.86 159.21 44.49"/><polygon class="c" points="147.24 28.11 119.12 0 136.53 0 155.94 19.41 147.24 28.11"/><polygon class="c" points="108.41 401.86 136.53 429.97 119.12 429.97 99.71 410.56 108.41 401.86"/><polygon class="c" points="64.41 273.09 55.71 281.79 11.2 237.28 19.91 228.58 64.41 273.09"/><polygon class="c" points="36.08 393.55 0 357.47 0 340.06 44.78 384.84 36.08 393.55"/><polygon class="c" points="393.89 303.98 429.97 340.06 429.97 357.47 385.19 312.69 393.89 303.98"/><polygon class="c" points="69.59 320.61 60.88 329.32 49.4 317.83 58.1 309.13 69.59 320.61"/><polygon class="c" points="97.2 300.87 131.43 335.11 122.73 343.81 88.5 309.58 97.2 300.87"/><polygon class="c" points="2.32 193.79 0 191.47 0 174.06 11.02 185.09 2.32 193.79"/><polygon class="c" points="427.65 171.75 429.97 174.06 429.97 191.47 418.95 180.45 427.65 171.75"/><polygon class="c" points="253.86 95.22 245.15 103.92 222.56 81.33 231.27 72.63 253.86 95.22"/></pattern></defs><title>strategicThinking-pattern</title><rect class="d" width="399.82" height="612"/></svg>