<svg xmlns="http://www.w3.org/2000/svg" xmlns:xlink="http://www.w3.org/1999/xlink" viewBox="0 0 396 612"><defs><style>.a{fill:none;}.b{fill:#50c8e1;}.c{fill:#37b4b7;}.d{fill:url(#a);}</style><pattern id="a" width="429.97" height="429.97" patternTransform="translate(1672.43 -351.04)" patternUnits="userSpaceOnUse" viewBox="0 0 429.97 429.97"><rect class="a" width="429.97" height="429.97"/><path class="b" d="M193.44,215.35v12.12a6.91,6.91,0,0,1-7.3,7.15c-4.33,0-7.35-2.94-7.35-7.16v-5.17l0-4V179.34a6.91,6.91,0,0,1,7.3-7.14c4.33,0,7.35,2.94,7.35,7.14v32Z"/><path class="b" d="M39.69,124a6.94,6.94,0,0,1-7.15,7.34H0V116.71H32.54a6.92,6.92,0,0,1,7.15,7.3"/><path class="b" d="M347.89,13.85c-4.33,0-7.35-2.94-7.35-7.15V0h14.65V6.7a6.91,6.91,0,0,1-7.3,7.15"/><path class="b" d="M422.24,261.92c0-4.32,2.94-7.35,7.15-7.35H430v14.65h-.58a6.91,6.91,0,0,1-7.15-7.3"/><path class="b" d="M81.94,261.92c0,4.33-2.94,7.35-7.15,7.35H0V254.63H74.79a6.91,6.91,0,0,1,7.15,7.3"/><path class="b" d="M430,239.9V0H369.91V6.7a22,22,0,0,1-44,0V0H0V102H32.54a22,22,0,0,1,0,44.05H0V239.9H74.79a22,22,0,1,1,0,44H0V430H77.09l.16-28.72H92L91.82,430H430v-146h-.58a22,22,0,1,1,0-44ZM92,0l-.66,119.19H76.59L77.25,0ZM325.87,325.16a22,22,0,1,1,44,0V429.72H355.24V325.16c0-4.21-3-7.15-7.35-7.15a6.92,6.92,0,0,0-7.3,7.15V429.72H325.87ZM285,251.69h84.9v14.73H285Zm-37.87,0h24.09v14.73H247.14Zm-115.4-70.31H117V124h14.73Zm19.65,129.39a22,22,0,1,1,0,44H121.27a22,22,0,1,1,0-44Zm56.77-83.32a22,22,0,1,1-44,0V179.34a22,22,0,1,1,44,0ZM430,146H237.4a22,22,0,1,1,0-44H430v14.68H237.4c-4.21,0-7.15,3-7.15,7.34a6.91,6.91,0,0,0,7.15,7.3H430Z"/><path class="b" d="M151.39,340.15h-7.22l-4-.06H121.27a6.91,6.91,0,0,1-7.15-7.3c0-4.32,2.94-7.34,7.15-7.34h14l4,.05H151.4a6.92,6.92,0,0,1,7.14,7.3c0,4.33-2.94,7.35-7.15,7.35"/><path class="c" d="M347.89,303.14a21.78,21.78,0,0,1,22,22V429.72H355.24V325.16c0-4.21-3-7.15-7.35-7.15a6.92,6.92,0,0,0-7.3,7.15V429.72H325.87V325.16a21.78,21.78,0,0,1,22-22"/><path class="c" d="M347.89,28.72a21.78,21.78,0,0,1-22-22V0h14.67V6.7c0,4.21,3,7.15,7.35,7.15a6.91,6.91,0,0,0,7.3-7.15V0h14.72V6.7a21.78,21.78,0,0,1-22,22"/><path class="c" d="M215.38,124a21.79,21.79,0,0,1,22-22H430v14.68H237.4c-4.21,0-7.15,3-7.15,7.34a6.91,6.91,0,0,0,7.15,7.3H430V146H237.4a21.79,21.79,0,0,1-22-22"/><path class="c" d="M54.56,124a21.8,21.8,0,0,1-22,22H0V131.35H32.54a7.32,7.32,0,0,0,0-14.64H0V102H32.54a21.8,21.8,0,0,1,22,22"/><polygon class="c" points="76.59 119.19 77.25 0 91.98 0 91.32 119.19 76.59 119.19"/><polygon class="c" points="91.98 401.25 91.82 429.97 77.09 429.97 77.25 401.25 91.98 401.25"/><rect class="c" x="117.01" y="124" width="14.73" height="57.38"/><path class="c" d="M208.17,227.46V179.34a22,22,0,0,0-44,0v48.12a22,22,0,1,0,44,0m-14.68-48.12v32l-.05,4v12.12a6.91,6.91,0,0,1-7.3,7.15c-4.32,0-7.35-2.94-7.35-7.16v-5.17l0-4V179.34a6.91,6.91,0,0,1,7.3-7.14c4.33,0,7.35,2.94,7.35,7.14"/><path class="c" d="M151.39,310.78H121.27a22,22,0,1,0,0,44h30.12a22,22,0,1,0,0-44m7.15,22c0,4.33-2.94,7.35-7.15,7.35h-7.22l-4-.06H121.27a6.91,6.91,0,0,1-7.15-7.3c0-4.32,2.94-7.34,7.15-7.34h14l4,.05H151.4a6.92,6.92,0,0,1,7.14,7.3"/><path class="c" d="M96.82,261.92a21.79,21.79,0,0,1-22,22H0V269.27H74.79c4.21,0,7.15-3,7.15-7.35a6.91,6.91,0,0,0-7.15-7.3H0V239.9H74.79a21.79,21.79,0,0,1,22,22"/><path class="c" d="M407.37,261.92a21.78,21.78,0,0,1,22-22H430v14.67h-.58c-4.21,0-7.15,3-7.15,7.35a6.91,6.91,0,0,0,7.15,7.3H430v14.72h-.58a21.78,21.78,0,0,1-22-22"/><rect class="c" x="247.14" y="251.7" width="24.1" height="14.73"/><rect class="c" x="285.01" y="251.69" width="84.91" height="14.73"/></pattern></defs><title>teamwork-pattern</title><rect class="d" width="396" height="612"/></svg>